<?xml version="1.0" encoding="utf-8"?>
<!-- Generator: Adobe Illustrator 24.3.0, SVG Export Plug-In . SVG Version: 6.00 Build 0)  -->
<svg version="1.1" id="Capa_1" xmlns="http://www.w3.org/2000/svg" xmlns:xlink="http://www.w3.org/1999/xlink" x="0px" y="0px"
	 viewBox="0 0 302 253" style="enable-background:new 0 0 302 253;" xml:space="preserve">
<style type="text/css">
	.st0{fill:#049DC3;}
	.st1{fill:#FFFFFF;}
	.st2{fill:#005073;}
</style>
<path d="M120.3,110c6.9,0.4,13.7,2,20,5c9.1,4.3,17.1,10.6,23.4,18.5c3.9,4.8,6.7,10.2,7.2,16.5c0.2,1.9,0.7,2.4,2.6,2.5
	c3.4,0,7-0.4,10.1,0.8c4.7,1.9,6.4,4,6.4,8.7c-0.1,21.3-0.2,42.5,0.1,63.7c0,5.5-4.5,9.9-10,9.9c-23,0-46.1,0-69.1,0
	c-25.9,0-51.9,0-77.8,0.1c-4.8,0-8.5-1.5-10.8-5.8c-0.4-0.7-0.7-1.5-0.7-2.3c0-22.4-0.1-44.7,0-67.1c0-3.7,3.6-7.8,8.7-8
	c3.1-0.1,6.3,0,9.3,0c4-23.9,23.6-40.1,48-42.5c0-3.7,0.2-7.4-0.1-11.1c-0.1-0.8-1.5-1.6-2.5-2.2c-7-3.9-12.4-9.2-13.9-17.1
	c-0.7-3.7-1.9-5.3-5.5-6.6c-4.5-1.5-9.3-7-8.6-12.3c0.2-1.4,0.6-2.8,1.3-4c1.5-2.4,2.3-5.1,2.3-7.9c-0.2-5.7-0.1-11.4-0.1-17.1
	c0-7.3,3.5-12.6,9.1-16.9c6.4-4.9,13.7-6.7,21.7-6.6c13.9,0.1,27.8,0,41.7,0c4.9,0,5.2,0.4,4.3,5.2c-0.1,0.8-0.3,1.5-0.3,2.1
	c2.3,2,4.5,4,6.7,6c2.5,2.3,3.9,5.5,3.8,8.9c0,6.3-0.1,12.6,0.1,19c0.1,1.8,0.7,3.5,1.7,5c3.6,6.2,2.5,15-5.5,18.4
	c-1.5,0.6-3,1-4.5,1.6c-0.5,0.2-0.9,0.7-1,1.2c-1.1,10.4-7.3,17.2-16.1,22c-1.3,0.5-2,1.8-1.8,3.2
	C120.3,103.7,120.3,106.7,120.3,110z M105.5,231.6h23.3c16.7,0,33.4,0,50.2,0c4.9,0,6.8-1.9,6.7-6.4c-0.3-6.7,0-13.5,0-20.2
	c0-13.9-0.1-27.8,0.1-41.7c0-5.4-1.3-7.1-6.7-7.1H32c-4.3,0-6.4,2.2-6.4,6.5c0,20.7,0.1,41.5-0.1,62.2c-0.1,3.6,2.7,6.6,6.3,6.8
	c0.2,0,0.4,0,0.6,0C56.7,231.5,81.1,231.6,105.5,231.6z M104.1,25.4c-3.5,0.3-7,0.3-10.4,0.8c-8.5,1.3-17.2,8.2-18.6,16.5
	c-0.3,2-0.4,4.1-0.3,6.1c0,1.9-0.7,2.6-2.6,3c-2.4,0.5-4.7,1.2-6.9,2.3c-1.8,0.8-4,6-3.5,8.4c1.1,5.5,4.6,7.9,9.8,8.4
	c2.3,0.2,3.3,1.1,3.2,3.5c-0.4,9.2,6.7,17.2,14.6,20.1c10.5,3.9,21.3,4.1,31.5-0.9c7.5-3.7,12.2-9.9,12.9-18.6
	c0.3-3.6,0.2-3.6,3.9-4.2c4.1-0.7,7.4-2.5,8.8-6.6c2.1-6.1-2.7-11.9-9.7-12.4c-2.3-0.1-3-1.1-2.9-3.2c0.2-3.4-0.5-6.9-2-10
	c-2.3-4.6-6.2-8.3-10.9-10.5C115.5,25.6,109.8,25.5,104.1,25.4z M167.4,152.2c-1.1-3.7-1.7-7.1-3.2-10.1
	c-3.3-6.7-8.2-12.6-14.2-17.1c-5-3.7-10.5-6.6-16.3-8.6c-0.8,0-1.5,0.4-2,1c-1.8,3.9-3.5,7.8-5.2,11.8c-1.4,3.3-2.8,6.5-4.3,9.7
	c-0.9,1.9-2.5,2.2-4.1,0.9l-2.6-2.1l-4.3,5.5c3.2,1.9,4.3,5.1,4.2,8.9h27.3c0-2.9,0-5.7,0-8.5c0-1.6,0.1-3,2.2-3s2.2,1.3,2.2,2.9
	c0,2.9,0,5.7,0,8.6L167.4,152.2z M76.2,116.2c-17.3,5.2-30.3,20.4-31.9,35.8h17.6c0-3,0-5.8,0-8.7c0-1.4,0.1-2.8,1.8-2.7
	c1.3-0.1,2.4,0.9,2.5,2.1c0,0.2,0,0.4,0,0.6c-0.1,2.9,0,5.8,0,8.7h25.3l4.8-9.4l-4-5.6c-0.8,1-1.6,1.9-2.5,2.8
	c-1.6,1.3-3.1,1-3.9-0.7c-1.9-4.3-3.8-8.6-5.7-12.9C78.8,122.9,77.5,119.6,76.2,116.2L76.2,116.2z M70,47.9
	c0.5-4.7,0.9-9.1,3.6-13.1c6-9,14.5-12.6,24.9-12.8c6.8-0.1,13.7,0,20.5,0s11.6-2.9,14.1-9.7c-0.6-0.1-1.2-0.1-1.8-0.2
	c-13.7,0-27.5,0-41.2,0c-4.4-0.2-8.7,0.6-12.7,2.4c-6.8,3.2-11.8,8.4-12.8,15.9c-0.8,6.3-0.2,12.8-0.2,19.3L70,47.9z M92.1,100.4
	c0,2.9,0,6.2,0,9.4c0,1.2,0,2.4,0.1,3.6c0,0.7,0.2,1.4,0.5,2c2.4,4,5.7,6.6,10.6,6.8c5.3,0.3,11.7-2.7,12.3-8
	c0.5-4.7,0.1-9.4,0.1-13.7L92.1,100.4z M143.3,49.2c0-6.5,0.3-12.9-0.1-19.2c-0.3-4.9-3.6-9-8.3-10.3l-9.2,5.6c2.9,3,6.1,6.2,9,9.7
	c3.1,3.7,3.7,8.4,3.7,13L143.3,49.2z M80.3,114.9c2.8,6.8,5.6,13.5,8.4,20.2l10.5-9.6c-5.7-1.5-10.2-6-11.8-11.8L80.3,114.9z
	 M108.8,125.7l10.2,9.4l9-20.3l-7.5-1.1C118.8,120.6,115.3,123.3,108.8,125.7L108.8,125.7z M104,127c-2.2,2-4.3,3.8-6.1,5.7
	c-0.7,0.8-1.1,1.9-0.9,3c1.1,3.8,5,6.1,8.9,5.2c3.6-0.8,6.5-5.7,4.6-8C108.4,130.8,106.3,128.8,104,127z M110.9,152.2
	c-0.3-4.6-3.3-7.3-7.3-7.2c-3.6,0.1-7.4,4.1-6.5,7.2H110.9z"/>
<path class="st0" d="M201.1,40.8V38c0-4.6,2.6-7.3,7.2-7.3c4.3,0,8.5,0,12.8,0s8.1,2.4,7.4,7.5c-0.3,2.5,0.5,3.8,3.2,4.4
	c3.3,0.8,6.5,2,9.5,3.6c2.7,1.4,4.1-0.3,5.8-1.5c5.6-4,7.4-3.9,12.6,0.8c2.2,2,4.4,3.9,6.7,5.8c2,1.7,1.9,5.8-0.1,7.5
	c-1.4,1.1-2.8,2.2-4,3.5c-0.3,0.7-0.3,1.5,0,2.2c1.8,3.7,3.6,7.3,5.5,10.9c0.4,0.8,1.1,1.4,2,1.7c2,0.2,4.1,0.2,6.1,0.1
	c3.4,0.1,5.4,1.9,5.6,5.3c0.1,3.8,0.1,7.5,0,11.3c-0.1,2.6-2.2,4.7-4.8,4.8c-2.3,0.1-4.6,0-6.9,0.2c-0.8,0-1.5,0.3-2,0.9
	c-2,3.9-4,7.9-5.8,11.9c-0.2,0.7-0.1,1.4,0.3,2c0.9,1,1.9,1.8,3,2.7c3.4,2.9,3.4,6.1,0,9c-2.8,2.4-5.5,4.8-8.2,7.2s-6.1,2.4-8.9-0.2
	c-1-1-2.1-2-3.3-2.7c-1-0.4-2.2-0.5-3.3-0.2c-3.9,1.3-7.7,2.7-11.5,4.2c-0.7,0.4-1.3,1-1.5,1.8c-0.1,1.2-0.2,2.4-0.1,3.6
	c-0.1,3.7-2,6.1-5.7,6.2c-5.3,0.2-10.6,0.3-15.9,0.1c-3.5-0.3-6-3.3-5.8-6.8c0.2-3-0.4-4.7-3.8-5.4c-2.9-0.6-5.6-2-8.3-3.2
	c-3.4-1.5-3.8-1.6-7,1.7c-2,2-4.3,3.1-7.1,2.3c-1.3-0.4-2.5-1.1-3.5-2c-2.9-2.4-5.7-4.8-8.4-7.3c-2.1-2-1.7-6.5,0.6-8.2
	c0.3-0.3,0.7-0.4,1-0.7c3.1-2.7,3-2.6,1.2-6.3c-1.5-3.1-2.7-6.3-4.2-9.5c-0.3-0.6-0.9-1-1.5-1.2c-1.8-0.1-3.6,0-5.4-0.1
	c-4.6,0-7.2-2.5-7.4-7.2c-0.1-2.4-0.1-4.8,0-7.2c0.1-4.4,2.7-7,7.2-7h0.5c2,0,4.4,0.6,5.7-0.3s1.2-3.5,2-5.2
	c1.1-2.4,2.4-4.7,3.7-6.9c0.8-1.3,0.8-2.3-0.5-3.3c-0.8-0.6-1.5-1.4-2.3-2c-2.4-1.8-3-5.2-1.2-7.6c0.4-0.5,0.8-0.9,1.3-1.2
	c3.3-2.6,6.6-5.3,10-7.8c1.4-1.3,3.4-1.4,4.9-0.3c1.9,1.4,3.9,2.6,6,3.7c1,0.3,2.1,0.2,3-0.2C192.2,44.5,196.4,42.7,201.1,40.8z
	 M214.8,141.6L214.8,141.6c2.5-0.1,4.9-0.1,7.4-0.1c1.4,0,2.2-0.7,2.1-2.2c-0.1-1.9,0.1-3.8,0-5.6c-0.1-1.7,0.7-2.4,2.2-2.9
	c5.2-1.8,10.3-3.8,15.5-5.7c1.5-0.5,2.8-1,4.2,0.5c1.2,1.3,2.6,2.3,3.9,3.5c1.5,1.4,3,2.1,4.8,0.5c2.8-2.5,5.7-4.8,8.4-7.4
	c0.4-0.7,0.4-1.6,0-2.4c-1.4-1.5-2.9-2.8-4.6-4c-2.4-1.8-2.4-2.6-1-5.3c2.3-4.3,4.4-8.8,6.4-13.3c0.6-1.4,1.2-2.1,2.7-2
	c2.7,0.1,5.5,0,8.2,0c1.7,0,2.5-0.8,2.5-2.5c0-3.1,0-6.2,0-9.2c0-1.9-0.9-2.8-2.8-2.7c-2.6,0.2-5.1,0.2-7.7,0
	c-0.9-0.1-2.3-0.8-2.5-1.5c-1.4-5.4-3.8-10.5-7.1-14.9c-1-1.4-0.7-2.5,0.6-3.5c1.7-1.4,3.4-2.8,5.1-4.1c1.2-1,1.2-2,0-3
	c-1.9-1.4-3.7-2.9-5.4-4.5c-5.4-5.5-5.7-4.2-9.7,0c-2.4,2.6-3.5,2.4-6.7,1c-3.4-1.6-7-2.9-10.6-4.2c-6.9-2.5-6.2-0.1-6.2-8
	c0-0.3,0-0.7,0-1c0.2-1.6-0.5-2.4-2.1-2.4c-4.9,0-9.7-0.1-14.6,0c-0.8,0-1.9,1.3-2.1,2.2c-0.3,1.7-0.3,3.4-0.1,5.1
	c0.2,2-0.8,2.5-2.6,3c-4.3,1.1-8.6,2.6-12.7,4.3c-5,2.3-5.5,3.5-9.5-1.2c-0.5-0.5-1.3-0.9-1.8-1.4c-1.6-1.9-3-1.3-4.6,0.1
	c-2.3,2-4.6,4-6.9,5.9c-2.2,1.8-2.1,3.1,0.2,4.9c1.7,1.3,3.3,2.6,4.8,4.1c0.4,0.7,0.5,1.5,0.1,2.3c-3.4,4.2-5.8,9.1-6.9,14.4
	c-0.4,2-1.4,2.5-3.1,2.5c-2.5,0-5,0-7.4,0c-1.6,0-2.4,0.6-2.4,2.2c0,3.3,0,6.7,0,10c0,1.5,0.8,2.1,2.3,2.1c2.3,0,4.6,0.1,6.9,0
	s3.6,0.7,4.1,3.1c1.1,5,3.4,9.6,6.7,13.4c0.9,1.1,0.8,2.1-0.5,3c-1.7,1.3-3.3,2.8-5,4.2c-1.5,1.2-1.7,2.4-0.1,3.8
	c2.6,2.2,5.2,4.5,7.8,6.8c1.3,1.2,2.5,1.5,3.9,0c1.1-1.2,2.6-2.2,3.7-3.4c1.6-1.8,3.5-2.1,5.4-0.9c4.7,2.8,10,4.8,15.4,5.6
	c1.2,0.1,2.2,1.1,2.1,2.3c0,0.1,0,0.2,0,0.3c-0.1,1.8,0,3.6,0,5.4s0.7,2.8,2.8,2.8C210.3,141.5,212.5,141.6,214.8,141.6z"/>
<path class="st1" d="M104.1,25.4c5.8,0,11.5,0.1,16.8,2.7c4.7,2.1,8.6,5.8,10.9,10.5c1.5,3.1,2.2,6.6,2,10c0,2.1,0.6,3,2.9,3.2
	c7.1,0.5,11.9,6.2,9.7,12.4c-1.4,4.1-4.7,6-8.8,6.6c-3.7,0.6-3.6,0.6-3.9,4.2c-0.7,8.7-5.4,15-12.9,18.6c-10.2,5-21,4.8-31.5,0.9
	c-7.9-3-15-10.9-14.6-20.1c0.1-2.5-1-3.3-3.2-3.5c-5.1-0.5-8.7-2.9-9.8-8.4c-0.5-2.5,1.6-7.6,3.5-8.4c2.2-1,4.5-1.8,6.9-2.3
	c2-0.3,2.6-1.1,2.6-3c0-2,0.1-4.1,0.3-6.1c1.4-8.3,10.1-15.2,18.6-16.5C97.1,25.7,100.6,25.7,104.1,25.4z M103.1,85.1
	c5.5,0,9.8-1.1,13.3-4.3c0.5-0.5,1.2-1.2,1.1-1.7c-0.2-0.7-0.8-1.2-1.5-1.4c-0.9-0.1-1.7,0-2.5,0.5c-5.9,4.1-13.1,4.2-18.7-0.1
	c-1-0.5-2.3-0.5-3.3,0.1c-1.3,1.2-0.3,2.5,1,3.3C96,83.8,99.7,85.3,103.1,85.1L103.1,85.1z"/>
<path class="st1" d="M167.4,152.2h-20.5c0-2.9,0-5.7,0-8.6c0-1.6-0.2-3-2.2-2.9s-2.2,1.5-2.2,3c0,2.8,0,5.6,0,8.5h-27.3
	c0.1-3.8-0.9-7-4.2-8.9l4.3-5.5l2.6,2.1c1.6,1.3,3.3,1,4.1-0.9c1.5-3.2,2.8-6.5,4.3-9.7c1.7-3.9,3.3-7.9,5.2-11.8c0.5-0.6,1.2-1,2-1
	c5.9,2,11.4,4.8,16.4,8.6c6,4.5,10.9,10.3,14.3,17.1C165.7,145,166.3,148.5,167.4,152.2z"/>
<path class="st1" d="M76.2,116.2c1.3,3.3,2.6,6.7,4,10c1.8,4.3,3.7,8.6,5.7,12.9c0.8,1.8,2.3,2.1,3.9,0.7c0.9-0.9,1.8-1.8,2.5-2.8
	l4,5.6l-4.8,9.4H66.1c0-2.9-0.1-5.8,0-8.7c0.2-1.3-0.6-2.5-1.8-2.7c-0.2,0-0.4-0.1-0.6,0c-1.7,0-1.8,1.3-1.8,2.7c0,2.8,0,5.6,0,8.7
	H44.3C46,136.6,58.9,121.5,76.2,116.2z"/>
<path class="st1" d="M70,47.9l-5.5,1.7c0-6.5-0.7-13,0.2-19.3c1-7.5,5.9-12.6,12.8-15.9c4-1.7,8.3-2.6,12.7-2.4
	c13.7,0,27.5,0,41.2,0c0.6,0,1.2,0.1,1.8,0.2c-2.5,6.8-7.4,9.6-14.1,9.7s-13.7-0.1-20.5,0C88.2,22,79.7,25.7,73.7,34.6
	C71,38.8,70.5,43.2,70,47.9z"/>
<path class="st1" d="M92.1,100.4h23.6c0,4.3,0.4,9.1-0.1,13.7c-0.6,5.3-7,8.3-12.3,8c-4.8-0.3-8.2-2.8-10.6-6.8
	c-0.3-0.6-0.5-1.3-0.5-2c-0.1-1.2-0.1-2.4-0.1-3.6C92.1,106.6,92.1,103.4,92.1,100.4z"/>
<path class="st1" d="M143.3,49.2l-5-1.4c0-4.6-0.6-9.3-3.7-13c-2.8-3.5-6.1-6.6-9-9.7l9.2-5.6c4.7,1.3,8.1,5.5,8.4,10.4
	C143.6,36.3,143.3,42.7,143.3,49.2z"/>
<path class="st1" d="M80.3,114.9l7.2-1.1c1.5,5.7,6,10.2,11.8,11.8l-10.5,9.6C86,128.3,83.2,121.7,80.3,114.9z"/>
<path class="st1" d="M108.9,125.7c6.4-2.4,9.9-5.1,11.7-12l7.5,1.1l-9,20.3L108.9,125.7z"/>
<path class="st1" d="M104,127c2.3,1.8,4.4,3.8,6.4,5.9c2,2.3-1,7.2-4.6,8c-3.9,1-7.8-1.3-8.9-5.2c-0.1-1.1,0.2-2.2,0.9-3
	C99.7,130.8,101.8,129,104,127z"/>
<path class="st1" d="M110.9,152.2H97c-0.8-3.1,3-7.1,6.5-7.2C107.5,144.8,110.6,147.6,110.9,152.2z"/>
<path class="st1" d="M214.8,141.6c-2.2,0-4.4-0.1-6.7,0c-2,0.1-2.8-0.9-2.8-2.8s-0.1-3.6,0-5.4c0.2-1.2-0.5-2.4-1.7-2.6
	c-0.1,0-0.2,0-0.3,0c-5.5-0.9-10.7-2.8-15.4-5.6c-2-1.2-3.8-0.8-5.4,0.9c-1.1,1.2-2.6,2.2-3.7,3.4c-1.4,1.5-2.6,1.2-3.9,0
	c-2.6-2.3-5.2-4.6-7.8-6.8c-1.6-1.3-1.4-2.5,0.1-3.8c1.7-1.4,3.3-2.9,5-4.2c1.2-0.9,1.3-2,0.5-3c-3.3-3.9-5.6-8.5-6.7-13.4
	c-0.5-2.4-1.8-3.2-4.1-3.1s-4.6,0-6.9,0c-1.4,0-2.3-0.6-2.3-2.1c0-3.3,0-6.7,0-10c0-1.6,0.8-2.3,2.4-2.2c2.5,0,4.9,0,7.4,0
	c1.8,0,2.7-0.5,3.1-2.5c1.1-5.3,3.5-10.2,6.9-14.4c0.4-0.7,0.3-1.6-0.1-2.3c-1.5-1.5-3.1-2.9-4.8-4.1c-2.3-1.8-2.4-3.1-0.2-4.9
	c2.3-2,4.7-3.9,6.9-5.9c1.5-1.4,3-2,4.6-0.1c0.5,0.6,1.3,0.9,1.8,1.4c4.1,4.6,4.5,3.5,9.5,1.2c4.1-1.7,8.4-3.2,12.7-4.3
	c1.7-0.5,2.7-1.1,2.6-3c-0.2-1.7-0.2-3.4,0.1-5.1c0.2-0.9,1.3-2.2,2.1-2.2c4.8-0.2,9.7-0.1,14.6,0c1.6,0,2.3,0.8,2.1,2.4
	c0,0.3,0,0.7,0,1c0,7.9-0.7,5.6,6.2,8c3.6,1.3,7.2,2.5,10.6,4.2c3.2,1.5,4.2,1.6,6.7-1c4-4.2,4.3-5.6,9.7,0c1.7,1.6,3.5,3.1,5.4,4.5
	c1.2,1,1.2,2,0,3c-1.7,1.4-3.4,2.8-5.1,4.1c-1.2,1-1.6,2.2-0.6,3.5c3.3,4.5,5.7,9.5,7.1,14.9c0.2,0.7,1.6,1.4,2.5,1.5
	c2.6,0.2,5.1,0.2,7.7,0c2-0.1,2.8,0.8,2.8,2.7c0,3.1,0,6.2,0,9.2c0,1.7-0.7,2.5-2.5,2.5c-2.7-0.1-5.5,0-8.2,0c-1.5,0-2.1,0.7-2.7,2
	c-1.9,4.5-4,9-6.4,13.3c-1.4,2.7-1.5,3.4,1,5.3c1.6,1.2,3.2,2.5,4.6,4c0.4,0.7,0.4,1.6,0,2.4c-2.7,2.6-5.6,4.9-8.4,7.4
	c-1.8,1.6-3.3,0.9-4.8-0.5c-1.3-1.2-2.8-2.2-3.9-3.5c-1.3-1.5-2.7-1-4.2-0.5c-5.1,1.9-10.3,3.8-15.5,5.7c-1.5,0.5-2.3,1.3-2.2,2.9
	c0.1,1.9-0.1,3.8,0,5.6c0.1,1.6-0.7,2.2-2.1,2.2C219.6,141.5,217.2,141.5,214.8,141.6L214.8,141.6z M215,50.7c-8,0-15.9,1.9-23,5.7
	c-7.7,4.1-13.7,9.9-17,17.7c-2.6,6-4.2,12.4-2.7,19.4c2,8.7,5.9,15.7,12.6,21.4c8.1,6.9,17.7,10.2,28.3,10.6
	c9.3,0.4,18.6-1.9,26.5-6.8c7.5-4.6,13.4-10.8,16.1-19.2c3-9.3,2.8-18.6-2.2-27.6c-2.6-4.7-6.1-8.8-10.3-12
	C235.2,53.8,225.2,50.5,215,50.7z"/>
<path class="st0" d="M81.8,205.5c-1.6-2.8-2.8-5.9-7.1-6c-1.5,0-2.6-2-2.3-4c0.1-0.8,0.1-1.5,0-2.3c0-4.3,1.2-5.5,5.5-5.7l1,0
	l2.6-5.4c-3.6-2.7-3.6-4.9,0.2-7.8c0.6-0.6,1.2-1.2,1.8-1.8c2.7-2.5,5.1-2.4,8.3,0.4l5.9-2.2c1-4.9,1.2-5.2,6.5-5.2
	c1.9-0.1,3.8-0.1,5.6,0.1c2.4,0.3,3.6,2.1,3.8,5.3c0.8,0.3,1.8,0.8,2.7,1.1s1.7,0.6,2.7,0.9c3.4-2.8,5.1-2.8,8.7,0.2
	c0.2,0.2,0.4,0.3,0.6,0.4c4.3,3,4.6,4.8,1.3,8.8l2.1,5.2c0.8,0,1.8,0,2.8,0.2c0.8,0,1.5,0.2,2.2,0.6c3.3,2.2,1.5,5.6,1.8,8.5
	c0.3,1.5-0.7,2.9-2.2,3.2c-0.2,0-0.4,0.1-0.7,0c-4.3-0.4-5,2.7-6.1,5.7c0.5,0.5,1,1,1.4,1.6c0.6,0.7,0.9,1.6,0.9,2.5
	c-0.5,3.7-3.8,5-6.3,6.9c-1.8,1.4-3.8,0.2-5.4-0.8c-2.3-1.5-6.4,0.2-6.6,2.9c-0.2,2.5-2.1,3.3-4,3.5c-2.7,0.2-5.5,0.2-8.2,0
	c-3.3-0.2-3.3-2.8-3.6-5.3l-5.9-2.1c-2.6,2.7-5.3,3.6-9-0.2c-0.3-0.4-0.7-0.7-1.1-1.1C78,210.4,77.9,208.5,81.8,205.5z M87.6,213
	c2.5-3.3,5.4-3.1,8.5-0.9c0.4,0.2,0.7,0.4,1.2,0.5c3.3,0.5,6.4,1.1,5.1,5.8h6.4c-0.9-4.2,1.8-5.2,4.9-5.8c1.5-0.3,2.8-1.4,4.3-1.6
	c1.2-0.2,2.5,0,3.7,0.4c0.8,0.3,1.4,1.2,2.2,2l3.8-3.5l-3.2-3.7c0.9-1.7,2.1-3.2,2.4-4.8c0.7-4.3,3.1-5.6,7.1-5.1
	c0.1,0,0.3-0.2,0.3-0.2v-4.4c-0.9,0-1.7,0-2.4,0c-2.4,0.2-3.8-0.6-4.3-3.2c-0.4-1.7-1.1-3.2-2-4.7c-0.9-1.5-0.8-2.7,0.5-3.8
	c0.5-0.5,1-1,1.6-1.7l-4.2-3.5c-1.8,3.2-4.1,3.3-6.8,1.6c-0.9-0.6-2-1-3.1-1.2c-3-0.6-5.6-1.6-4.9-5.4h-6.3c1.2,3.8-1,4.8-4,5.2
	c-0.8,0.1-1.7,0.4-2.4,0.8c-3,2-5.9,2.5-8.3-0.8l-4.1,3.4c0.4,0.4,0.8,0.8,1.3,1.2c2.5,1.9,2.6,2.5,0.9,5c-0.5,0.8-1.4,1.5-1.5,2.3
	c-0.4,4.3-2.9,5.5-6.7,5c-0.1,0-0.3,0.2-0.5,0.3v4.6c4.5-1.3,6.7,0.7,7.3,4.9c0,0.2,0.1,0.3,0.2,0.5c2.5,4.3,2.5,4.3-0.7,7.9
	L87.6,213z"/>
<path d="M103.1,85.1c-3.4,0.2-7.1-1.3-10.6-3.6c-1.2-0.8-2.2-2.1-1-3.3c1-0.6,2.2-0.6,3.3-0.1c5.7,4.4,12.8,4.2,18.7,0.1
	c0.8-0.4,1.6-0.6,2.5-0.5c0.7,0.2,1.3,0.7,1.5,1.4c0.1,0.5-0.6,1.3-1.1,1.7C112.9,84,108.6,85.1,103.1,85.1z"/>
<path class="st0" d="M215,50.7c10.2-0.2,20.2,3.1,28.3,9.3c4.2,3.2,7.8,7.3,10.3,12c5,9,5.2,18.3,2.2,27.6
	c-2.7,8.3-8.6,14.6-16.1,19.2c-8,4.9-17.2,7.2-26.5,6.8c-10.6-0.4-20.1-3.7-28.3-10.6c-6.7-5.6-10.6-12.7-12.6-21.4
	c-1.6-7.1,0-13.4,2.7-19.5c3.4-7.8,9.4-13.6,17-17.7C199,52.6,207,50.6,215,50.7z M176.5,87c-0.1,9.1,2.7,16,8.2,21.9
	c7,7.6,15.6,11.5,25.6,12.5c9.9,1.2,19.9-1.3,28.1-6.9c6.7-4.5,11.4-10.3,13.6-17.9c2.2-7.2,1.6-15-1.9-21.7
	c-3.3-6.5-8.4-11.8-14.8-15.2c-7.8-4.3-16.8-6-25.7-4.9c-10.4,1-20,6.1-26.7,14.2C178.6,74.4,176.1,80.8,176.5,87z"/>
<path class="st1" d="M87.5,213l-3.8-3.2c3.3-3.6,3.3-3.6,0.7-7.9c-0.1-0.1-0.2-0.3-0.2-0.5c-0.6-4.2-2.8-6.2-7.3-4.9v-4.6
	c0.2-0.1,0.3-0.3,0.5-0.3c3.8,0.5,6.4-0.7,6.7-5c0.1-0.8,1-1.5,1.5-2.3c1.7-2.5,1.5-3.1-0.9-5c-0.5-0.4-0.9-0.8-1.3-1.2l4.1-3.4
	c2.4,3.3,5.2,2.9,8.3,0.8c0.7-0.4,1.5-0.7,2.4-0.8c3-0.4,5.2-1.4,4-5.2h6.3c-0.7,3.8,1.8,4.8,4.9,5.4c1.1,0.2,2.1,0.6,3.1,1.2
	c2.7,1.6,4.9,1.6,6.8-1.6l4.2,3.5c-0.6,0.7-1.1,1.2-1.6,1.7c-1.3,1.2-1.4,2.3-0.5,3.8c0.9,1.4,1.6,3,2,4.7c0.5,2.6,2,3.3,4.3,3.2
	c0.8-0.1,1.5,0,2.4,0v4.5c0,0-0.2,0.2-0.3,0.2c-4-0.5-6.5,0.8-7.1,5.1c-0.2,1.6-1.5,3-2.4,4.8l3.2,3.7l-3.8,3.5
	c-0.8-0.8-1.4-1.7-2.2-2c-1.2-0.4-2.4-0.6-3.7-0.4c-1.5,0.3-2.8,1.3-4.3,1.6c-3.2,0.7-5.8,1.6-4.9,5.8h-6.4c1.3-4.7-1.8-5.3-5.1-5.8
	c-0.4-0.1-0.8-0.2-1.2-0.5C92.9,209.9,90,209.7,87.5,213z M105,178.6c-6.2,0.3-11.9,2.6-15.5,9.3s-0.7,13.1,3.3,16.7
	c4.4,4,10.6,5.6,16.4,4.4c10.3-1.9,17.2-11.2,12.7-20.9C118.9,181.6,113,178.7,105,178.6z"/>
<path class="st0" d="M105,178.6c8,0.1,13.9,3,17,9.5c4.5,9.7-2.5,19-12.7,20.9c-5.9,1.3-12-0.4-16.4-4.4c-4-3.6-6.9-10.1-3.3-16.7
	S98.8,178.9,105,178.6z M105.7,205.9c2.4-0.7,5.1-1,7.2-2.3c6.2-3.7,8-10.1,4.2-15.4c-4.2-5.8-10.4-7-16.8-4.7
	c-6,2.2-9.6,9-7.5,13.7C95.2,202.5,99.6,205.4,105.7,205.9L105.7,205.9z"/>
<path class="st2" d="M188.1,88.1c4.2,3.8,8.2,7.3,12,11c0.7,0.6,0.5,2.2,0.7,3.3c-1.2,0-2.7,0.4-3.4-0.2c-2.5-2-4.8-4.2-7.1-6.4
	s-4.5-4-6.6-6.2c-0.5-0.5-0.7-2.3-0.3-2.7c4.6-4.4,9.3-8.8,14.1-13c1-0.6,2.3-0.5,3.3,0.1c1.2,1.1,0.3,2.4-0.8,3.4
	C196,80.8,192.2,84.4,188.1,88.1z"/>
<path class="st2" d="M247.3,88.3l-12.4,11.6c-0.7,0.9-1.5,1.6-2.4,2.2c-1,0.4-2.5,0.8-3.3,0.3c-1.5-0.9-0.8-2.2,0.3-3.2
	c3.2-3,6.4-6,9.7-8.9c0.7-0.7,1.5-1.3,2.4-2.2L231,78.4c-0.1-0.1-0.3-0.1-0.4-0.2c-0.9-1.3-3.3-2.2-1.6-4.1s3.1-0.3,4.5,1
	c3.8,3.5,7.7,7,11.5,10.6C245.8,86.5,246.6,87.4,247.3,88.3z"/>
<path class="st2" d="M224.6,73.2c-0.9,1.5-1.7,2.6-2.3,3.9c-3.4,7-6.8,14.1-10.2,21.2c-0.8,1.8-1.7,3.6-2.9,5.3
	c-0.6,0.8-2,1-3.1,1.4c-0.3-1-1.1-2.3-0.8-3c2-4.3,4.3-8.5,6.4-12.8c2-3.9,3.8-7.9,5.7-11.9c0.8-1.7,1.7-3.4,2.8-5
	c0.7-0.6,1.7-0.8,2.6-0.6C223.5,71.6,224,72.5,224.6,73.2z"/>
<path class="st1" d="M105.7,205.9c-6.1-0.5-10.5-3.4-12.9-8.7c-2.1-4.7,1.5-11.5,7.5-13.7c6.4-2.3,12.6-1.1,16.8,4.7
	c3.8,5.3,2,11.7-4.2,15.4C110.8,204.8,108.1,205.1,105.7,205.9z"/>
</svg>
