<svg id="Capa_1" data-name="Capa 1" xmlns="http://www.w3.org/2000/svg" viewBox="0 0 302 253"><defs><style>.cls-1{fill:#fff;}</style></defs><path class="cls-1" d="M837,430h302V683H837ZM957.25,540c0-3.29.06-6.35,0-9.41a3.05,3.05,0,0,1,1.82-3.19c8.79-4.78,15-11.52,16.09-22a1.84,1.84,0,0,1,1-1.23c1.47-.6,3-1,4.51-1.58,8-3.32,9.07-12.18,5.51-18.35a11.3,11.3,0,0,1-1.65-5c-.19-6.32-.05-12.64-.09-18.95a11.51,11.51,0,0,0-3.75-8.87c-2.2-2-4.44-4-6.74-6,.1-.64.21-1.38.35-2.13.91-4.81.61-5.18-4.27-5.18-13.9,0-27.8.1-41.71-.05-8-.08-15.29,1.68-21.72,6.61-5.59,4.28-9.08,9.66-9.08,16.92,0,5.71,0,11.43.12,17.15a14.58,14.58,0,0,1-2.32,7.93,11.33,11.33,0,0,0-1.31,4c-.76,5.34,4,10.74,8.57,12.29,3.64,1.25,4.81,2.91,5.54,6.59,1.58,7.95,7,13.28,13.94,17.15,1,.54,2.46,1.37,2.52,2.15.27,3.7.12,7.42.12,11.09-24.46,2.43-44,18.61-48,42.5-3.07,0-6.21-.12-9.34,0-5,.23-8.64,4.31-8.66,8-.08,22.37,0,44.73,0,67.1a5,5,0,0,0,.7,2.28c2.34,4.28,6.06,5.77,10.82,5.75q38.89-.15,77.79-.09,34.54,0,69.09.05a10,10,0,0,0,10-9.94c-.28-21.24-.17-42.49-.07-63.74,0-4.68-1.66-6.79-6.39-8.65-3-1.17-6.68-.77-10.06-.81-1.86,0-2.44-.54-2.59-2.45-.49-6.29-3.28-11.77-7.18-16.52A65.52,65.52,0,0,0,977.25,545,53.38,53.38,0,0,0,957.25,540Zm80.89-69.19c-4.69,1.89-9,3.67-13.34,5.33a4.34,4.34,0,0,1-3,.24,44.37,44.37,0,0,1-6-3.68,3.88,3.88,0,0,0-4.91.3c-3.38,2.51-6.6,5.23-9.95,7.79a5.46,5.46,0,0,0-.08,8.87c.81.61,1.45,1.43,2.26,2.05,1.25,1,1.26,2,.5,3.28-1.31,2.27-2.6,4.56-3.69,6.93-.8,1.72-.76,4.33-2,5.17s-3.78.27-5.74.29h-.51c-4.45.06-7.11,2.64-7.19,7.05,0,2.38-.06,4.78,0,7.16.16,4.66,2.75,7.15,7.37,7.18,1.79,0,3.59-.08,5.37.06A2.3,2.3,0,0,1,998.8,530c1.44,3.14,2.64,6.39,4.15,9.49,1.78,3.66,1.89,3.62-1.22,6.29-.31.28-.7.45-1,.7-2.34,1.77-2.75,6.21-.61,8.22,2.71,2.54,5.52,5,8.39,7.35A10.16,10.16,0,0,0,1012,564c2.8.81,5.07-.25,7.09-2.3,3.21-3.27,3.67-3.23,7.05-1.69,2.7,1.22,5.4,2.66,8.26,3.23,3.36.66,4,2.35,3.8,5.4a6.36,6.36,0,0,0,5.82,6.75c5.28.18,10.58.15,15.86-.09,3.64-.17,5.62-2.59,5.69-6.24a20.2,20.2,0,0,1,.07-3.57,2.9,2.9,0,0,1,1.46-1.84c3.79-1.49,7.61-2.9,11.49-4.15a4.77,4.77,0,0,1,3.25.19,16.41,16.41,0,0,1,3.34,2.71c2.87,2.55,6,2.64,8.93.16s5.48-4.78,8.23-7.16c3.39-2.95,3.4-6.1,0-9a32.4,32.4,0,0,1-3-2.68,2.27,2.27,0,0,1-.35-2c1.84-4,3.76-8,5.79-11.88a2.74,2.74,0,0,1,2-.92c2.29-.15,4.6-.05,6.9-.18a4.86,4.86,0,0,0,4.77-4.75c.1-3.76.12-7.52,0-11.27-.12-3.4-2.15-5.26-5.55-5.34a59.53,59.53,0,0,1-6.13-.15,3.3,3.3,0,0,1-2-1.66c-1.93-3.59-3.76-7.24-5.51-10.92a2.53,2.53,0,0,1,0-2.19,36,36,0,0,1,4-3.52c2-1.66,2.1-5.79.13-7.5-2.22-1.94-4.49-3.85-6.67-5.84-5.18-4.73-7-4.85-12.63-.84-1.71,1.22-3.17,2.88-5.85,1.48a42.13,42.13,0,0,0-9.46-3.6c-2.66-.66-3.49-1.93-3.17-4.44.65-5.17-3.15-7.56-7.41-7.52s-8.53,0-12.8,0c-4.61,0-7.22,2.66-7.23,7.27Z" transform="translate(-837 -430)"/><path d="M957.25,540a53.38,53.38,0,0,1,20,5,65.52,65.52,0,0,1,23.42,18.5c3.9,4.75,6.69,10.23,7.18,16.52.15,1.91.73,2.43,2.59,2.45,3.38,0,7-.36,10.06.81,4.73,1.86,6.41,4,6.39,8.65-.1,21.25-.21,42.5.07,63.74a10,10,0,0,1-10,9.94q-34.54,0-69.09-.05-38.89,0-77.79.09c-4.76,0-8.48-1.47-10.82-5.75a5,5,0,0,1-.7-2.28c0-22.37-.07-44.73,0-67.1,0-3.7,3.61-7.78,8.66-8,3.13-.14,6.27,0,9.34,0,4-23.89,23.59-40.07,48-42.5,0-3.67.15-7.39-.12-11.09-.06-.78-1.55-1.61-2.52-2.15-7-3.87-12.36-9.2-13.94-17.15-.73-3.68-1.9-5.34-5.54-6.59-4.54-1.55-9.33-6.95-8.57-12.29a11.33,11.33,0,0,1,1.31-4,14.58,14.58,0,0,0,2.32-7.93c-.16-5.72-.12-11.44-.12-17.15,0-7.26,3.49-12.64,9.08-16.92,6.43-4.93,13.72-6.69,21.72-6.61,13.91.15,27.81,0,41.71.05,4.88,0,5.18.37,4.27,5.18-.14.75-.25,1.49-.35,2.13,2.3,2,4.54,4,6.74,6a11.51,11.51,0,0,1,3.75,8.87c0,6.31-.1,12.63.09,18.95a11.3,11.3,0,0,0,1.65,5c3.56,6.17,2.47,15-5.51,18.35-1.47.61-3,1-4.51,1.58a1.84,1.84,0,0,0-1,1.23c-1.14,10.44-7.3,17.18-16.09,22a3.05,3.05,0,0,0-1.82,3.19C957.31,533.67,957.25,536.73,957.25,540ZM942.48,661.64h23.28c16.72,0,33.43,0,50.15,0,4.86,0,6.84-1.92,6.66-6.41-.25-6.73,0-13.48,0-20.22,0-13.9-.07-27.8.07-41.7,0-5.38-1.35-7.11-6.72-7.1H869c-4.32,0-6.43,2.15-6.43,6.53,0,20.74.11,41.48-.11,62.21a6.53,6.53,0,0,0,6.82,6.78C893.7,661.53,918.09,661.64,942.48,661.64Zm-1.42-206.22c-3.48.25-7,.29-10.43.8-8.51,1.26-17.24,8.17-18.6,16.5a38.93,38.93,0,0,0-.35,6.11c0,1.87-.67,2.64-2.62,3a31.83,31.83,0,0,0-6.92,2.26c-1.84.78-3.95,6-3.45,8.43,1.13,5.48,4.64,7.85,9.78,8.36,2.27.22,3.34,1.06,3.24,3.51-.38,9.19,6.67,17.16,14.58,20.12,10.5,3.93,21.27,4.09,31.49-.88,7.54-3.66,12.22-9.93,12.9-18.62.29-3.6.2-3.59,3.93-4.19,4.1-.66,7.39-2.51,8.82-6.65,2.13-6.13-2.65-11.91-9.74-12.36-2.31-.15-3-1.1-2.9-3.16a20.75,20.75,0,0,0-2-10,22.52,22.52,0,0,0-10.93-10.46C952.51,455.56,946.81,455.45,941.06,455.42Zm63.33,126.75c-1.11-3.66-1.65-7.12-3.16-10.08A48.21,48.21,0,0,0,987,555a57.85,57.85,0,0,0-16.33-8.57,2.35,2.35,0,0,0-2,1c-1.82,3.88-3.46,7.85-5.17,11.79-1.41,3.25-2.8,6.5-4.26,9.72-.87,1.9-2.49,2.21-4.13.89l-2.64-2.11-4.31,5.54c3.23,1.89,4.25,5.07,4.16,8.87h27.3c0-2.92,0-5.72,0-8.52,0-1.56.12-3,2.18-3s2.23,1.33,2.2,2.94c-.05,2.87,0,5.74,0,8.61Zm-91.16-35.93c-17.33,5.23-30.26,20.39-31.93,35.83h17.58c0-3,0-5.85,0-8.65,0-1.4.09-2.78,1.83-2.74a2.34,2.34,0,0,1,2.48,2.78c-.13,2.87,0,5.75,0,8.68h25.31l4.82-9.43-3.95-5.64a28.22,28.22,0,0,1-2.54,2.78c-1.59,1.34-3.12,1-3.93-.73q-2.91-6.4-5.65-12.87C915.8,552.94,914.54,549.57,913.23,546.24ZM907,477.86c.45-4.7.92-9.07,3.64-13.14,6-9,14.51-12.64,24.88-12.8,6.82-.1,13.65,0,20.47,0s11.63-2.91,14.09-9.67a17,17,0,0,0-1.75-.16q-20.6,0-41.19,0a29.11,29.11,0,0,0-12.68,2.38c-6.84,3.23-11.78,8.35-12.78,15.85-.84,6.27-.18,12.75-.18,19.28Zm22.06,52.57c0,2.94,0,6.17,0,9.39,0,1.2,0,2.4.1,3.58a4.49,4.49,0,0,0,.55,2c2.4,4,5.74,6.59,10.59,6.85,5.31.28,11.73-2.72,12.29-8,.49-4.67.1-9.43.1-13.74Zm51.21-51.21c0-6.5.3-12.89-.09-19.23a11.39,11.39,0,0,0-8.35-10.34l-9.22,5.58c2.86,3,6.13,6.18,9,9.66,3.06,3.73,3.71,8.38,3.68,13Zm-62.95,65.65c2.85,6.85,5.62,13.47,8.43,20.24l10.53-9.57a16.69,16.69,0,0,1-11.78-11.77Zm28.52,10.82L956,565.07l9-20.27-7.52-1.09C955.76,550.62,952.27,553.29,945.87,555.69ZM941,557c-2.17,2-4.25,3.76-6.07,5.74a3.78,3.78,0,0,0-.93,3,7.34,7.34,0,0,0,8.88,5.16c3.58-.79,6.52-5.73,4.56-8A69,69,0,0,0,941,557Zm6.92,25.15c-.29-4.57-3.33-7.35-7.31-7.21-3.57.13-7.36,4.12-6.52,7.21Z" transform="translate(-837 -430)"/><path d="M1038.14,470.83V468c0-4.61,2.62-7.25,7.23-7.27,4.27,0,8.53,0,12.8,0s8.06,2.35,7.41,7.52c-.32,2.51.51,3.78,3.17,4.44a42.13,42.13,0,0,1,9.46,3.6c2.68,1.4,4.14-.26,5.85-1.48,5.58-4,7.45-3.89,12.63.84,2.18,2,4.45,3.9,6.67,5.84,2,1.71,1.88,5.84-.13,7.5a36,36,0,0,0-4,3.52,2.53,2.53,0,0,0,0,2.19c1.75,3.68,3.58,7.33,5.51,10.92a3.3,3.3,0,0,0,2,1.66,59.53,59.53,0,0,0,6.13.15c3.4.08,5.43,1.94,5.55,5.34.12,3.75.1,7.51,0,11.27a4.86,4.86,0,0,1-4.77,4.75c-2.3.13-4.61,0-6.9.18a2.74,2.74,0,0,0-2,.92c-2,3.91-4,7.88-5.79,11.88a2.27,2.27,0,0,0,.35,2,32.4,32.4,0,0,0,3,2.68c3.39,2.93,3.38,6.08,0,9-2.75,2.38-5.46,4.8-8.23,7.16s-6.06,2.39-8.93-.16a16.41,16.41,0,0,0-3.34-2.71,4.77,4.77,0,0,0-3.25-.19c-3.88,1.25-7.7,2.66-11.49,4.15a2.9,2.9,0,0,0-1.46,1.84,20.2,20.2,0,0,0-.07,3.57c-.07,3.65-2,6.07-5.69,6.24-5.28.24-10.58.27-15.86.09a6.36,6.36,0,0,1-5.82-6.75c.22-3-.44-4.74-3.8-5.4-2.86-.57-5.56-2-8.26-3.23-3.38-1.54-3.84-1.58-7.05,1.69-2,2-4.29,3.11-7.09,2.3a10.16,10.16,0,0,1-3.54-1.95c-2.87-2.36-5.68-4.81-8.39-7.35-2.14-2-1.73-6.45.61-8.22.34-.25.73-.42,1-.7,3.11-2.67,3-2.63,1.22-6.29-1.51-3.1-2.71-6.35-4.15-9.49a2.3,2.3,0,0,0-1.55-1.16c-1.78-.14-3.58,0-5.37-.06-4.62,0-7.21-2.52-7.37-7.18-.08-2.38-.06-4.78,0-7.16.08-4.41,2.74-7,7.19-7.05h.51c2,0,4.38.63,5.74-.29s1.21-3.45,2-5.17c1.09-2.37,2.38-4.66,3.69-6.93.76-1.31.75-2.31-.5-3.28-.81-.62-1.45-1.44-2.26-2.05a5.46,5.46,0,0,1,.08-8.87c3.35-2.56,6.57-5.28,9.95-7.79a3.88,3.88,0,0,1,4.91-.3,44.37,44.37,0,0,0,6,3.68,4.34,4.34,0,0,0,3-.24C1029.15,474.5,1033.45,472.72,1038.14,470.83Zm13.61,100.73v-.06c2.47,0,4.93,0,7.4,0,1.42,0,2.18-.66,2.1-2.23-.09-1.87.06-3.76,0-5.63-.07-1.66.72-2.41,2.21-2.93,5.18-1.83,10.33-3.75,15.47-5.67,1.49-.55,2.82-1,4.16.47,1.18,1.31,2.64,2.35,3.94,3.55,1.5,1.38,3,2.06,4.82.48,2.8-2.45,5.67-4.82,8.36-7.39a2.41,2.41,0,0,0,0-2.37,32.48,32.48,0,0,0-4.57-4c-2.45-1.82-2.43-2.56-1-5.26,2.33-4.31,4.43-8.76,6.37-13.26.61-1.4,1.16-2.09,2.69-2,2.73.06,5.46,0,8.19,0,1.74,0,2.49-.77,2.48-2.46,0-3.07,0-6.15,0-9.22,0-1.91-.87-2.76-2.84-2.67a63.3,63.3,0,0,1-7.67,0c-.91-.07-2.35-.78-2.53-1.47a42.56,42.56,0,0,0-7.11-14.92c-1-1.37-.66-2.54.55-3.55,1.68-1.39,3.37-2.76,5.06-4.15,1.18-1,1.21-2,0-3a69.55,69.55,0,0,1-5.4-4.53c-5.38-5.52-5.69-4.19-9.68,0-2.44,2.58-3.49,2.44-6.66,1-3.44-1.61-7-2.88-10.64-4.16-6.94-2.46-6.18-.08-6.22-8a7,7,0,0,1,0-1c.19-1.61-.53-2.43-2.12-2.44-4.86,0-9.71-.14-14.56,0-.76,0-1.91,1.32-2.1,2.19a18.51,18.51,0,0,0-.07,5.1c.16,2-.84,2.54-2.57,3a92.8,92.8,0,0,0-12.72,4.3c-5,2.29-5.45,3.46-9.52-1.16-.49-.55-1.29-.85-1.77-1.41-1.6-1.87-3-1.29-4.56.1-2.26,2-4.59,4-6.92,5.94-2.16,1.8-2.08,3.13.2,4.9a44.41,44.41,0,0,1,4.76,4.11,2.31,2.31,0,0,1,.1,2.25,34,34,0,0,0-6.92,14.41c-.4,2-1.37,2.51-3.14,2.48-2.48,0-5,0-7.42,0-1.58,0-2.42.59-2.42,2.22,0,3.33,0,6.65,0,10,0,1.51.83,2.13,2.27,2.12,2.3,0,4.61.12,6.9,0s3.61.67,4.12,3.06a30.88,30.88,0,0,0,6.71,13.41c.9,1.08.75,2.1-.45,3-1.73,1.34-3.35,2.82-5,4.23-1.46,1.24-1.68,2.43-.08,3.78,2.64,2.23,5.23,4.52,7.84,6.79,1.32,1.15,2.55,1.46,3.94,0,1.14-1.23,2.58-2.18,3.72-3.41,1.63-1.77,3.46-2.11,5.44-.94a43.06,43.06,0,0,0,15.44,5.62,2.23,2.23,0,0,1,2.07,2.67c-.1,1.79,0,3.59,0,5.38s.74,2.84,2.75,2.76C1047.31,571.49,1049.53,571.56,1051.75,571.56Z" transform="translate(-837 -430)"/><path class="cls-1" d="M942.48,661.64c-24.39,0-48.78-.11-73.17.11a6.53,6.53,0,0,1-6.82-6.78c.22-20.73.1-41.47.11-62.21,0-4.38,2.11-6.53,6.43-6.53h146.85c5.37,0,6.77,1.72,6.72,7.1-.14,13.9-.06,27.8-.07,41.7,0,6.74-.21,13.49,0,20.22.18,4.49-1.8,6.43-6.66,6.41-16.72-.06-33.43,0-50.15,0Zm-23.7-26.12c-3.86,3-3.82,4.9.16,8a12.45,12.45,0,0,1,1.1,1.08c3.62,3.76,6.35,2.88,9,.16l5.88,2.25c.27,2.44.31,5.08,3.62,5.25a49.64,49.64,0,0,0,8.18,0c1.89-.21,3.74-1.07,4-3.53.24-2.67,4.3-4.36,6.63-2.91,1.66,1,3.59,2.25,5.43.82,2.47-1.92,5.78-3.24,6.29-6.89a4.73,4.73,0,0,0-.94-2.52,8.59,8.59,0,0,0-1.39-1.58c1.16-3,1.83-6.13,6.11-5.69a2.74,2.74,0,0,0,2.88-3.21c-.27-2.89,1.5-6.29-1.8-8.49a5.31,5.31,0,0,0-2.2-.58c-1-.13-2-.13-2.8-.18l-2.11-5.16c3.31-4,3-5.77-1.32-8.79-.21-.15-.42-.28-.62-.44-3.62-2.91-5.31-2.92-8.68-.16-1-.3-1.84-.54-2.7-.86s-1.84-.77-2.68-1.12c-.22-3.16-1.44-5-3.84-5.28a39,39,0,0,0-5.62-.07c-5.27.07-5.55.31-6.51,5.22L928.86,603c-3.2-2.78-5.61-2.9-8.27-.4a23.6,23.6,0,0,1-1.82,1.79c-3.8,2.85-3.82,5.06-.24,7.77L916,617.55l-1,.05c-4.34.21-5.51,1.42-5.53,5.7a16,16,0,0,1-.05,2.3c-.33,2,.76,3.94,2.3,4C916,629.6,917.15,632.68,918.78,635.52Z" transform="translate(-837 -430)"/><path class="cls-1" d="M941.06,455.42c5.75,0,11.45.14,16.76,2.73a22.52,22.52,0,0,1,10.93,10.46,20.75,20.75,0,0,1,2,10c0,2.06.59,3,2.9,3.16,7.09.45,11.87,6.23,9.74,12.36-1.43,4.14-4.72,6-8.82,6.65-3.73.6-3.64.59-3.93,4.19-.68,8.69-5.36,15-12.9,18.62-10.22,5-21,4.81-31.49.88-7.91-3-15-10.93-14.58-20.12.1-2.45-1-3.29-3.24-3.51-5.14-.51-8.65-2.88-9.78-8.36-.5-2.45,1.61-7.65,3.45-8.43a31.83,31.83,0,0,1,6.92-2.26c2-.34,2.62-1.11,2.62-3a38.93,38.93,0,0,1,.35-6.11c1.36-8.33,10.09-15.24,18.6-16.5C934.07,455.71,937.58,455.67,941.06,455.42Zm-1,59.68c5.53,0,9.83-1.06,13.35-4.3.51-.47,1.16-1.21,1.1-1.74a2.13,2.13,0,0,0-1.5-1.36,3.72,3.72,0,0,0-2.5.48c-5.89,4.08-13.07,4.25-18.72-.15a3.4,3.4,0,0,0-3.29.12c-1.26,1.24-.25,2.54,1,3.34C933,513.77,936.71,515.32,940.09,515.1Z" transform="translate(-837 -430)"/><path class="cls-1" d="M1004.39,582.17H983.93c0-2.87,0-5.74,0-8.61,0-1.61-.15-3-2.2-2.94s-2.19,1.47-2.18,3c0,2.8,0,5.6,0,8.52h-27.3c.09-3.8-.93-7-4.16-8.87l4.31-5.54,2.64,2.11c1.64,1.32,3.26,1,4.13-.89,1.46-3.22,2.85-6.47,4.26-9.72,1.71-3.94,3.35-7.91,5.17-11.79a2.35,2.35,0,0,1,2-1A57.85,57.85,0,0,1,987,555a48.21,48.21,0,0,1,14.27,17.07C1002.74,575.05,1003.28,578.51,1004.39,582.17Z" transform="translate(-837 -430)"/><path class="cls-1" d="M913.23,546.24c1.31,3.33,2.57,6.7,4,10q2.73,6.48,5.65,12.87c.81,1.78,2.34,2.07,3.93.73a28.22,28.22,0,0,0,2.54-2.78l3.95,5.64-4.82,9.43H903.14c0-2.93-.1-5.81,0-8.68a2.34,2.34,0,0,0-2.48-2.78c-1.74,0-1.85,1.34-1.83,2.74,0,2.8,0,5.61,0,8.65H881.3C883,566.63,895.9,551.47,913.23,546.24Z" transform="translate(-837 -430)"/><path class="cls-1" d="M907,477.86l-5.5,1.66c0-6.53-.66-13,.18-19.28,1-7.5,5.94-12.62,12.78-15.85A29.11,29.11,0,0,1,927.17,442q20.6,0,41.19,0a17,17,0,0,1,1.75.16c-2.46,6.76-7.36,9.61-14.09,9.67s-13.65-.06-20.47,0c-10.37.16-18.87,3.83-24.88,12.8C908,468.79,907.48,473.16,907,477.86Z" transform="translate(-837 -430)"/><path class="cls-1" d="M929.09,530.43h23.63c0,4.31.39,9.07-.1,13.74-.56,5.31-7,8.31-12.29,8-4.85-.26-8.19-2.85-10.59-6.85a4.49,4.49,0,0,1-.55-2c-.11-1.18-.09-2.38-.1-3.58C929.08,536.6,929.09,533.37,929.09,530.43Z" transform="translate(-837 -430)"/><path class="cls-1" d="M980.3,479.22l-5-1.35c0-4.6-.62-9.25-3.68-13-2.84-3.48-6.11-6.61-9-9.66l9.22-5.58A11.39,11.39,0,0,1,980.21,460C980.6,466.33,980.3,472.72,980.3,479.22Z" transform="translate(-837 -430)"/><path class="cls-1" d="M917.35,544.87l7.18-1.1a16.69,16.69,0,0,0,11.78,11.77l-10.53,9.57C923,558.34,920.2,551.72,917.35,544.87Z" transform="translate(-837 -430)"/><path class="cls-1" d="M945.87,555.69c6.4-2.4,9.89-5.07,11.67-12l7.52,1.09-9,20.27Z" transform="translate(-837 -430)"/><path class="cls-1" d="M941,557a69,69,0,0,1,6.44,5.86c2,2.27-1,7.21-4.56,8a7.34,7.34,0,0,1-8.88-5.16,3.78,3.78,0,0,1,.93-3C936.7,560.78,938.78,559,941,557Z" transform="translate(-837 -430)"/><path class="cls-1" d="M947.87,582.17H934c-.84-3.09,3-7.08,6.52-7.21C944.54,574.82,947.58,577.6,947.87,582.17Z" transform="translate(-837 -430)"/><path class="cls-1" d="M1051.75,571.56c-2.22,0-4.44-.07-6.65,0-2,.08-2.79-.86-2.75-2.76s-.07-3.59,0-5.38a2.23,2.23,0,0,0-2.07-2.67,43.06,43.06,0,0,1-15.44-5.62c-2-1.17-3.81-.83-5.44.94-1.14,1.23-2.58,2.18-3.72,3.41-1.39,1.49-2.62,1.18-3.94,0-2.61-2.27-5.2-4.56-7.84-6.79-1.6-1.35-1.38-2.54.08-3.78,1.67-1.41,3.29-2.89,5-4.23,1.2-.94,1.35-2,.45-3a30.88,30.88,0,0,1-6.71-13.41c-.51-2.39-1.76-3.22-4.12-3.06s-4.6,0-6.9,0c-1.44,0-2.27-.61-2.27-2.12,0-3.33,0-6.65,0-10,0-1.63.84-2.25,2.42-2.22,2.47.05,4.94,0,7.42,0,1.77,0,2.74-.5,3.14-2.48a34,34,0,0,1,6.92-14.41,2.31,2.31,0,0,0-.1-2.25,44.41,44.41,0,0,0-4.76-4.11c-2.28-1.77-2.36-3.1-.2-4.9,2.33-1.95,4.66-3.91,6.92-5.94,1.54-1.39,3-2,4.56-.1.48.56,1.28.86,1.77,1.41,4.07,4.62,4.5,3.45,9.52,1.16a92.8,92.8,0,0,1,12.72-4.3c1.73-.5,2.73-1.06,2.57-3a18.51,18.51,0,0,1,.07-5.1c.19-.87,1.34-2.16,2.1-2.19,4.85-.19,9.7-.08,14.56,0,1.59,0,2.31.83,2.12,2.44a7,7,0,0,0,0,1c0,7.94-.72,5.56,6.22,8,3.59,1.28,7.2,2.55,10.64,4.16,3.17,1.48,4.22,1.62,6.66-1,4-4.23,4.3-5.56,9.68,0a69.55,69.55,0,0,0,5.4,4.53c1.18,1,1.15,2,0,3-1.69,1.39-3.38,2.76-5.06,4.15-1.21,1-1.6,2.18-.55,3.55a42.56,42.56,0,0,1,7.11,14.92c.18.69,1.62,1.4,2.53,1.47a63.3,63.3,0,0,0,7.67,0c2-.09,2.85.76,2.84,2.67,0,3.07,0,6.15,0,9.22,0,1.69-.74,2.49-2.48,2.46-2.73-.06-5.46,0-8.19,0-1.53,0-2.08.65-2.69,2-1.94,4.5-4,9-6.37,13.26-1.44,2.7-1.46,3.44,1,5.26a32.48,32.48,0,0,1,4.57,4,2.41,2.41,0,0,1,0,2.37c-2.69,2.57-5.56,4.94-8.36,7.39-1.79,1.58-3.32.9-4.82-.48-1.3-1.2-2.76-2.24-3.94-3.55-1.34-1.49-2.67-1-4.16-.47-5.14,1.92-10.29,3.84-15.47,5.67-1.49.52-2.28,1.27-2.21,2.93.09,1.87-.06,3.76,0,5.63.08,1.57-.68,2.21-2.1,2.23-2.47,0-4.93,0-7.4,0Zm.25-90.9a48.52,48.52,0,0,0-23,5.71c-7.65,4.11-13.66,9.9-17,17.72-2.61,6-4.24,12.35-2.65,19.45,2,8.68,5.91,15.72,12.57,21.36,8.14,6.89,17.67,10.22,28.28,10.61a46.59,46.59,0,0,0,26.54-6.8c7.47-4.56,13.39-10.83,16.11-19.18,3-9.3,2.84-18.63-2.2-27.58a37.93,37.93,0,0,0-10.31-12A45.67,45.67,0,0,0,1052,480.66Z" transform="translate(-837 -430)"/><path d="M918.78,635.52c-1.63-2.84-2.83-5.92-7.09-6-1.54,0-2.63-1.95-2.3-4a16,16,0,0,0,.05-2.3c0-4.28,1.19-5.49,5.53-5.7l1-.05,2.57-5.41c-3.58-2.71-3.56-4.92.24-7.77a23.6,23.6,0,0,0,1.82-1.79c2.66-2.5,5.07-2.38,8.27.4l5.92-2.16c1-4.91,1.24-5.15,6.51-5.22a39,39,0,0,1,5.62.07c2.4.31,3.62,2.12,3.84,5.28.84.35,1.75.77,2.68,1.12s1.74.56,2.7.86c3.37-2.76,5.06-2.75,8.68.16.2.16.41.29.62.44,4.35,3,4.63,4.83,1.32,8.79l2.11,5.16c.81,0,1.81,0,2.8.18a5.31,5.31,0,0,1,2.2.58c3.3,2.2,1.53,5.6,1.8,8.49a2.74,2.74,0,0,1-2.88,3.21c-4.28-.44-4.95,2.69-6.11,5.69a8.59,8.59,0,0,1,1.39,1.58,4.73,4.73,0,0,1,.94,2.52c-.51,3.65-3.82,5-6.29,6.89-1.84,1.43-3.77.21-5.43-.82-2.33-1.45-6.39.24-6.63,2.91-.23,2.46-2.08,3.32-4,3.53a49.64,49.64,0,0,1-8.18,0c-3.31-.17-3.35-2.81-3.62-5.25L929,644.77c-2.61,2.72-5.34,3.6-9-.16a12.45,12.45,0,0,0-1.1-1.08C915,640.42,914.92,638.47,918.78,635.52Zm5.77,7.48c2.45-3.31,5.38-3.08,8.49-.89a2.86,2.86,0,0,0,1.17.47c3.3.49,6.39,1.14,5.11,5.8h6.39c-.87-4.21,1.75-5.19,4.94-5.85,1.47-.31,2.79-1.36,4.26-1.64a7.51,7.51,0,0,1,3.68.42c.79.28,1.36,1.18,2.18,2l3.75-3.51-3.17-3.65c.89-1.73,2.13-3.17,2.37-4.76.66-4.32,3.14-5.64,7.12-5.13.12,0,.27-.17.31-.21v-4.42c-.92,0-1.68-.05-2.43,0-2.36.19-3.83-.57-4.33-3.16a15.08,15.08,0,0,0-2-4.67c-.9-1.52-.79-2.68.5-3.83.55-.48,1-1,1.64-1.72l-4.21-3.49c-1.84,3.22-4.12,3.25-6.78,1.61a9.39,9.39,0,0,0-3.08-1.19c-3-.61-5.58-1.59-4.88-5.44h-6.35c1.15,3.8-1,4.82-4,5.2a5.85,5.85,0,0,0-2.39.81c-3,2-5.88,2.48-8.27-.83l-4.14,3.38a16.09,16.09,0,0,0,1.29,1.22c2.47,1.86,2.59,2.46.92,5-.5.76-1.43,1.46-1.5,2.25-.38,4.31-2.89,5.5-6.74,5-.13,0-.28.15-.45.25v4.58c4.55-1.34,6.74.67,7.31,4.88a1.63,1.63,0,0,0,.2.47c2.54,4.27,2.55,4.27-.74,7.9Z" transform="translate(-837 -430)"/><path d="M940.09,515.1c-3.38.22-7.11-1.33-10.58-3.61-1.23-.8-2.24-2.1-1-3.34a3.4,3.4,0,0,1,3.29-.12c5.65,4.4,12.83,4.23,18.72.15a3.72,3.72,0,0,1,2.5-.48,2.13,2.13,0,0,1,1.5,1.36c.06.53-.59,1.27-1.1,1.74C949.92,514,945.62,515.07,940.09,515.1Z" transform="translate(-837 -430)"/><path d="M1052,480.66a45.67,45.67,0,0,1,28.28,9.28,37.93,37.93,0,0,1,10.31,12c5,8.95,5.22,18.28,2.2,27.58-2.72,8.35-8.64,14.62-16.11,19.18a46.59,46.59,0,0,1-26.54,6.8c-10.61-.39-20.14-3.72-28.28-10.61-6.66-5.64-10.61-12.68-12.57-21.36-1.59-7.1,0-13.43,2.65-19.45,3.38-7.82,9.39-13.61,17-17.72A48.52,48.52,0,0,1,1052,480.66ZM1013.52,517c-.14,9.13,2.67,16,8.18,21.93,7,7.56,15.63,11.47,25.65,12.48a41.43,41.43,0,0,0,28.11-6.9c6.67-4.46,11.43-10.34,13.62-17.9a28.79,28.79,0,0,0-1.9-21.7,35.3,35.3,0,0,0-14.8-15.21,41.87,41.87,0,0,0-25.65-4.87A39.17,39.17,0,0,0,1020.07,499C1015.61,504.36,1013.07,510.77,1013.52,517Z" transform="translate(-837 -430)"/><path class="cls-1" d="M924.55,643l-3.82-3.24c3.29-3.63,3.28-3.63.74-7.9a1.63,1.63,0,0,1-.2-.47c-.57-4.21-2.76-6.22-7.31-4.88v-4.58c.17-.1.32-.27.45-.25,3.85.51,6.36-.68,6.74-5,.07-.79,1-1.49,1.5-2.25,1.67-2.5,1.55-3.1-.92-5a16.09,16.09,0,0,1-1.29-1.22l4.14-3.38c2.39,3.31,5.24,2.87,8.27.83a5.85,5.85,0,0,1,2.39-.81c3-.38,5.16-1.4,4-5.2h6.35c-.7,3.85,1.84,4.83,4.88,5.44a9.39,9.39,0,0,1,3.08,1.19c2.66,1.64,4.94,1.61,6.78-1.61l4.21,3.49c-.63.67-1.09,1.24-1.64,1.72-1.29,1.15-1.4,2.31-.5,3.83a15.08,15.08,0,0,1,2,4.67c.5,2.59,2,3.35,4.33,3.16.75-.06,1.51,0,2.43,0V626s-.19.23-.31.21c-4-.51-6.46.81-7.12,5.13-.24,1.59-1.48,3-2.37,4.76l3.17,3.65-3.75,3.51c-.82-.77-1.39-1.67-2.18-2a7.51,7.51,0,0,0-3.68-.42c-1.47.28-2.79,1.33-4.26,1.64-3.19.66-5.81,1.64-4.94,5.85h-6.39c1.28-4.66-1.81-5.31-5.11-5.8a2.86,2.86,0,0,1-1.17-.47C929.93,639.92,927,639.69,924.55,643ZM942,608.61c-6.22.33-11.89,2.64-15.49,9.33s-.71,13.07,3.32,16.7A18.61,18.61,0,0,0,946.23,639c10.27-1.88,17.24-11.17,12.73-20.91C955.92,611.56,950,608.74,942,608.61Z" transform="translate(-837 -430)"/><path class="cls-1" d="M1013.52,517c-.45-6.21,2.09-12.62,6.55-18a39.17,39.17,0,0,1,26.66-14.15,41.87,41.87,0,0,1,25.65,4.87,35.3,35.3,0,0,1,14.8,15.21,28.79,28.79,0,0,1,1.9,21.7c-2.19,7.56-6.95,13.44-13.62,17.9a41.43,41.43,0,0,1-28.11,6.9c-10-1-18.67-4.92-25.65-12.48C1016.19,532.94,1013.38,526.11,1013.52,517Zm11.57,1.13c4.11-3.75,7.94-7.27,11.82-10.75,1.12-1,2-2.25.85-3.4a3.36,3.36,0,0,0-3.31-.06c-4.84,4.18-9.53,8.53-14.12,13-.43.41-.23,2.18.29,2.73,2.08,2.2,4.4,4.16,6.63,6.22s4.61,4.44,7.13,6.39c.74.57,2.24.15,3.39.18-.21-1.11,0-2.62-.69-3.26C1033.3,525.43,1029.31,522,1025.09,518.11Zm59.2.21a34.93,34.93,0,0,0-2.38-2.76c-3.82-3.56-7.69-7.06-11.52-10.61-1.33-1.23-2.74-2.92-4.46-1s.64,2.9,1.58,4.15c.09.12.33.11.44.22l10.49,9.76c-.93.84-1.67,1.49-2.39,2.15-3.23,3-6.45,5.93-9.65,8.92-1,1-1.75,2.31-.27,3.19.79.46,2.32.12,3.32-.32a9.94,9.94,0,0,0,2.45-2.17Zm-22.66-15.16c-.61-.62-1.09-1.52-1.69-1.6a3.25,3.25,0,0,0-2.61.63,31.13,31.13,0,0,0-2.82,5c-1.93,3.93-3.74,7.93-5.69,11.85-2.12,4.28-4.44,8.46-6.45,12.79-.33.73.48,2,.76,3,1.06-.44,2.5-.6,3.1-1.39a30.4,30.4,0,0,0,2.87-5.27c3.42-7,6.79-14.11,10.22-21.15C1059.93,505.81,1060.73,504.65,1061.63,503.16Z" transform="translate(-837 -430)"/><path d="M942,608.61c8,.13,13.91,2.95,17,9.51,4.51,9.74-2.46,19-12.73,20.91a18.61,18.61,0,0,1-16.39-4.39c-4-3.63-6.89-10.07-3.32-16.7S935.79,608.94,942,608.61Zm.7,27.25c2.4-.74,5.06-1.05,7.16-2.3,6.24-3.7,8-10.07,4.2-15.36-4.19-5.85-10.38-7-16.79-4.74-6,2.17-9.6,9-7.49,13.67C932.21,632.5,936.57,635.37,942.71,635.86Z" transform="translate(-837 -430)"/><path d="M1025.09,518.11c4.22,3.84,8.21,7.32,12,11,.66.64.48,2.15.69,3.26-1.15,0-2.65.39-3.39-.18-2.52-2-4.78-4.24-7.13-6.39s-4.55-4-6.63-6.22c-.52-.55-.72-2.32-.29-2.73,4.59-4.44,9.28-8.79,14.12-13a3.36,3.36,0,0,1,3.31.06c1.2,1.15.27,2.4-.85,3.4C1033,510.84,1029.2,514.36,1025.09,518.11Z" transform="translate(-837 -430)"/><path d="M1084.29,518.32l-12.39,11.57a9.94,9.94,0,0,1-2.45,2.17c-1,.44-2.53.78-3.32.32-1.48-.88-.76-2.23.27-3.19,3.2-3,6.42-6,9.65-8.92.72-.66,1.46-1.31,2.39-2.15L1068,508.36c-.11-.11-.35-.1-.44-.22-.94-1.25-3.27-2.21-1.58-4.15s3.13-.27,4.46,1c3.83,3.55,7.7,7.05,11.52,10.61A34.93,34.93,0,0,1,1084.29,518.32Z" transform="translate(-837 -430)"/><path d="M1061.63,503.16c-.9,1.49-1.7,2.65-2.31,3.9-3.43,7-6.8,14.11-10.22,21.15a30.4,30.4,0,0,1-2.87,5.27c-.6.79-2,.95-3.1,1.39-.28-1-1.09-2.29-.76-3,2-4.33,4.33-8.51,6.45-12.79,2-3.92,3.76-7.92,5.69-11.85a31.13,31.13,0,0,1,2.82-5,3.25,3.25,0,0,1,2.61-.63C1060.54,501.64,1061,502.54,1061.63,503.16Z" transform="translate(-837 -430)"/><path class="cls-1" d="M942.71,635.86c-6.14-.49-10.5-3.36-12.92-8.73-2.11-4.67,1.46-11.5,7.49-13.67,6.41-2.3,12.6-1.11,16.79,4.74,3.79,5.29,2,11.66-4.2,15.36C947.77,634.81,945.11,635.12,942.71,635.86Z" transform="translate(-837 -430)"/></svg>