<svg id="Capa_1" data-name="Capa 1" xmlns="http://www.w3.org/2000/svg" viewBox="0 0 121 129"><defs><style>.cls-1{fill:#049dc3;}.cls-2{fill:#005073;}</style></defs><path d="M45.07,57.76a20.68,20.68,0,0,1,9.13,2.83A32,32,0,0,1,64.9,71.08a18.94,18.94,0,0,1,3.27,9.37c.07,1.08.34,1.38,1.19,1.39,1.54,0,3.19-.21,4.59.46,2.16,1,2.93,2.26,2.92,4.9-.05,12-.1,24.1,0,36.14,0,3.12-2.06,5.64-4.57,5.64l-31.54,0Q23,129,5.27,129a4.92,4.92,0,0,1-4.94-3.26A3.5,3.5,0,0,1,0,124.45c0-12.69,0-25.37,0-38a4.54,4.54,0,0,1,4-4.53c1.43-.08,2.86,0,4.26,0C10.06,68.32,19,59.15,30.15,57.77c0-2.08.07-4.19-.06-6.29,0-.44-.71-.91-1.15-1.22a14.11,14.11,0,0,1-6.36-9.72c-.34-2.09-.87-3-2.53-3.74a7.3,7.3,0,0,1-3.91-7,7.6,7.6,0,0,1,.59-2.27,9.62,9.62,0,0,0,1.06-4.49c-.07-3.25-.05-6.49-.05-9.73a12.64,12.64,0,0,1,4.14-9.59A13.43,13.43,0,0,1,31.8,0c6.35.09,12.7,0,19,0C53.07,0,53.21.24,52.79,3c-.06.42-.11.84-.16,1.2,1,1.14,2.08,2.27,3.08,3.41a7.37,7.37,0,0,1,1.71,5c0,3.57,0,7.16,0,10.74a7.52,7.52,0,0,0,.76,2.84c1.62,3.49,1.12,8.5-2.52,10.4-.67.35-1.37.57-2.06.9a1,1,0,0,0-.46.69,16,16,0,0,1-7.34,12.48A1.82,1.82,0,0,0,45,52.47C45.1,54.17,45.07,55.9,45.07,57.76Zm-6.74,69H71.85c2.22,0,3.13-1.09,3-3.64-.11-3.81,0-7.64,0-11.46,0-7.88,0-15.77,0-23.65,0-3-.62-4-3.07-4H4.78c-2,0-2.93,1.22-2.93,3.7,0,11.76,0,23.52-.06,35.27-.06,2,1.22,3.77,2.87,3.85h.25C16.06,126.66,27.19,126.73,38.33,126.73ZM37.68,9.8c-1.59.14-3.2.16-4.76.45-3.89.72-7.87,4.64-8.49,9.36a26.64,26.64,0,0,0-.16,3.46c0,1.06-.31,1.5-1.2,1.7a12.67,12.67,0,0,0-3.16,1.29c-.84.44-1.8,3.4-1.57,4.77.51,3.11,2.11,4.46,4.46,4.75,1,.12,1.53.6,1.48,2A12.41,12.41,0,0,0,30.94,49c4.79,2.23,9.71,2.32,14.37-.5,3.45-2.07,5.58-5.63,5.89-10.55.14-2,.09-2,1.8-2.38a4.86,4.86,0,0,0,4-3.77,5.33,5.33,0,0,0-4.44-7c-1.06-.08-1.37-.62-1.33-1.79a14.26,14.26,0,0,0-.91-5.67,11.68,11.68,0,0,0-5-5.93C42.91,9.88,40.31,9.82,37.68,9.8ZM66.59,81.67A41.11,41.11,0,0,0,65.15,76a26.85,26.85,0,0,0-6.5-9.69A25.3,25.3,0,0,0,51.2,61.4a1,1,0,0,0-.91.57c-.84,2.2-1.58,4.45-2.36,6.68-.65,1.85-1.28,3.69-2,5.52-.4,1.07-1.14,1.25-1.89.5l-1.2-1.2-2,3.14c1.48,1.08,1.94,2.88,1.9,5H55.28V76.81c0-.88.06-1.7,1-1.7s1,.76,1,1.67c0,1.63,0,3.25,0,4.88ZM25,61.29c-7.91,3-13.81,11.57-14.57,20.32h8v-4.9c0-.8,0-1.58.84-1.56a1.17,1.17,0,0,1,1.15,1.22,2.17,2.17,0,0,1,0,.36c-.06,1.63,0,3.26,0,4.92H32l2.2-5.35-1.81-3.2a13.11,13.11,0,0,1-1.16,1.58c-.72.76-1.42.57-1.79-.41q-1.34-3.63-2.58-7.3c-.66-1.88-1.24-3.79-1.84-5.68ZM22.13,22.52c.21-2.66.42-5.14,1.66-7.45,2.74-5.1,6.63-7.16,11.36-7.26,3.11,0,6.23,0,9.35,0s5.31-1.65,6.43-5.48a5.44,5.44,0,0,0-.8-.09H31.32a11.09,11.09,0,0,0-5.78,1.35,11.42,11.42,0,0,0-5.84,9,104.56,104.56,0,0,0-.08,10.93ZM32.2,52.33v5.32c0,.68,0,1.36,0,2a2.92,2.92,0,0,0,.25,1.14c1.09,2.27,2.62,3.73,4.83,3.88,2.43.16,5.36-1.54,5.61-4.53.23-2.65.05-5.35.05-7.79Zm23.38-29c0-3.68.14-7.3,0-10.9-.13-2.77-1.66-5.13-3.81-5.86L47.52,9.69c1.3,1.7,2.8,3.51,4.11,5.48a13.16,13.16,0,0,1,1.68,7.37ZM26.84,60.52c1.3,3.88,2.57,7.64,3.85,11.47l4.81-5.42a8.76,8.76,0,0,1-5.38-6.68Zm13,6.13L44.5,72l4.11-11.49-3.43-.62c-.79,3.92-2.38,5.43-5.3,6.79Zm-2.21.75c-1,1.13-1.94,2.13-2.77,3.25a2.47,2.47,0,0,0-.42,1.7c.48,2.18,2.28,3.48,4,2.93s3-3.25,2.08-4.54A33.74,33.74,0,0,0,37.65,67.4Zm3.16,14.26c-.13-2.6-1.52-4.17-3.34-4.09-1.63.07-3.36,2.33-3,4.09Z" transform="translate(0 0)"/><path class="cls-1" d="M28.18,111.43c-.72-1.45-1.25-3-3.14-3.06-.68,0-1.16-1-1-2a9.14,9.14,0,0,0,0-1.17c0-2.18.52-2.8,2.44-2.91l.44,0,1.14-2.76c-1.58-1.38-1.57-2.51.11-4a11.71,11.71,0,0,0,.8-.92c1.18-1.27,2.24-1.21,3.66.21l2.61-1.1c.45-2.51.55-2.63,2.88-2.66a14.79,14.79,0,0,1,2.49,0c1.06.16,1.6,1.08,1.69,2.69.38.18.78.4,1.19.57s.77.29,1.19.44c1.49-1.4,2.24-1.4,3.84.08.09.09.18.15.27.23,1.93,1.53,2.05,2.46.59,4.48l.93,2.63a6.13,6.13,0,0,1,1.24.09,2.12,2.12,0,0,1,1,.3c1.46,1.12.68,2.85.8,4.33a1.41,1.41,0,0,1-1,1.62.93.93,0,0,1-.29,0c-1.89-.22-2.19,1.38-2.7,2.91a4.16,4.16,0,0,1,.62.8,2.69,2.69,0,0,1,.41,1.29c-.22,1.86-1.69,2.54-2.78,3.51-.81.73-1.67.11-2.4-.42a2,2,0,0,0-2.93,1.48,1.82,1.82,0,0,1-1.77,1.8,18.15,18.15,0,0,1-3.61,0c-1.47-.08-1.49-1.43-1.6-2.67l-2.6-1.09c-1.15,1.38-2.36,1.83-4-.09-.16-.19-.32-.37-.49-.55C26.51,113.93,26.47,112.93,28.18,111.43Zm2.55,3.81c1.08-1.68,2.38-1.57,3.75-.45A1.3,1.3,0,0,0,35,115c1.46.25,2.82.58,2.26,3h2.82c-.38-2.15.77-2.65,2.19-3,.64-.15,1.23-.69,1.88-.83a2.82,2.82,0,0,1,1.62.21c.35.14.61.6,1,1l1.66-1.79L47,111.75a9.76,9.76,0,0,0,1-2.43c.29-2.2,1.39-2.87,3.15-2.61.05,0,.12-.09.14-.11v-2.25c-.41,0-.75,0-1.08,0-1,.09-1.69-.29-1.91-1.61a8.41,8.41,0,0,0-.89-2.38,1.51,1.51,0,0,1,.23-2,9.26,9.26,0,0,0,.72-.87l-1.86-1.78c-.81,1.64-1.82,1.65-3,.82A3.78,3.78,0,0,0,42.18,96c-1.33-.31-2.47-.81-2.16-2.77h-2.8c.51,1.93-.45,2.45-1.77,2.65a2.42,2.42,0,0,0-1.06.41c-1.32,1-2.6,1.27-3.65-.42l-1.83,1.72a6.76,6.76,0,0,0,.57.62c1.09,1,1.14,1.26.4,2.55-.22.39-.63.75-.66,1.15-.17,2.2-1.28,2.8-3,2.55-.06,0-.12.08-.2.13v2.33c2-.68,3,.34,3.23,2.49a1,1,0,0,0,.09.24c1.12,2.18,1.13,2.18-.33,4Z" transform="translate(0 0)"/><path class="cls-1" d="M38.23,98.63c3.38.06,5.88,1.34,7.18,4.32,1.9,4.42-1,8.62-5.37,9.49a7.48,7.48,0,0,1-6.92-2,6.46,6.46,0,0,1-1.4-7.59A7.22,7.22,0,0,1,38.23,98.63Zm.3,12.37a13.81,13.81,0,0,0,3-1c2.64-1.68,3.38-4.58,1.77-7a5.52,5.52,0,0,0-7.08-2.15c-2.54,1-4.06,4.09-3.17,6.21a6.11,6.11,0,0,0,5.46,4Z" transform="translate(0 0)"/><path class="cls-1" d="M91,10.42V9.18c0-2,1-3.17,2.7-3.18h4.77a2.68,2.68,0,0,1,2.76,3.29c-.12,1.1.19,1.66,1.18,1.94A14.47,14.47,0,0,1,106,12.81c1,.61,1.54-.11,2.18-.65,2.08-1.75,2.78-1.7,4.71.37.81.87,1.66,1.71,2.49,2.56a2.69,2.69,0,0,1,0,3.28,13.58,13.58,0,0,0-1.49,1.54,1.23,1.23,0,0,0,0,1q1,2.41,2.05,4.78a1.26,1.26,0,0,0,.75.72,19.3,19.3,0,0,0,2.28.07c1.27,0,2,.85,2.07,2.34s0,3.28,0,4.93a2,2,0,0,1-1.78,2.08c-.86.05-1.72,0-2.57.07a1,1,0,0,0-.75.41c-.74,1.71-1.49,3.45-2.16,5.2a1.15,1.15,0,0,0,.14.87A13.81,13.81,0,0,0,115,43.52a2.51,2.51,0,0,1,0,3.93c-1,1-2,2.1-3.06,3.14a2.13,2.13,0,0,1-3.33-.07,6.38,6.38,0,0,0-1.25-1.19,1.54,1.54,0,0,0-1.21-.08c-1.45.55-2.87,1.16-4.28,1.81a1.28,1.28,0,0,0-.55.81,10.16,10.16,0,0,0,0,1.56c0,1.6-.75,2.66-2.12,2.73-2,.11-4,.12-5.92,0a2.67,2.67,0,0,1-2.17-3c.09-1.31-.16-2.08-1.41-2.36a13.15,13.15,0,0,1-3.08-1.42c-1.26-.67-1.43-.69-2.63.74a2.36,2.36,0,0,1-2.64,1A3.55,3.55,0,0,1,80,50.36c-1.07-1-2.12-2.1-3.13-3.21a2.89,2.89,0,0,1,.23-3.6,2.76,2.76,0,0,0,.37-.31c1.16-1.16,1.12-1.15.45-2.75-.56-1.36-1-2.78-1.54-4.15a.89.89,0,0,0-.58-.51c-.66-.06-1.34,0-2,0-1.73,0-2.69-1.1-2.75-3.14,0-1,0-2.09,0-3.13,0-1.93,1-3.07,2.68-3.09h.19c.75,0,1.63.28,2.14-.12s.45-1.51.75-2.27c.4-1,.88-2,1.37-3A1.07,1.07,0,0,0,78,19.58c-.3-.27-.54-.63-.84-.89a2.67,2.67,0,0,1-.44-3.34,2.23,2.23,0,0,1,.47-.54c1.25-1.12,2.45-2.32,3.71-3.41a1.29,1.29,0,0,1,1.83-.14,16.52,16.52,0,0,0,2.24,1.62,1.42,1.42,0,0,0,1.12-.11C87.69,12,89.29,11.25,91,10.42ZM96.12,54.5v0h2.75c.53,0,.82-.29.79-1s0-1.64,0-2.46a1.15,1.15,0,0,1,.82-1.28c1.93-.81,3.85-1.65,5.77-2.49.55-.24,1-.43,1.55.21s1,1,1.47,1.55,1.12.91,1.79.21c1-1.07,2.12-2.11,3.12-3.23a1.19,1.19,0,0,0,0-1,13.42,13.42,0,0,0-1.7-1.75c-.92-.79-.91-1.12-.38-2.3.87-1.89,1.66-3.83,2.38-5.8.23-.62.43-.92,1-.88,1,0,2,0,3,0,.65,0,.93-.34.93-1.08v-4c0-.84-.33-1.21-1.06-1.17a19.5,19.5,0,0,1-2.86,0c-.34,0-.87-.34-.94-.64A20.08,20.08,0,0,0,112,20.79a1.14,1.14,0,0,1,.2-1.56L114,17.42a.81.81,0,0,0,0-1.31c-.7-.63-1.37-1.29-2-2-2-2.41-2.13-1.83-3.61,0-.91,1.13-1.3,1.07-2.49.44a39.45,39.45,0,0,0-4-1.82c-2.59-1.08-2.31,0-2.32-3.5a3.23,3.23,0,0,1,0-.44c.07-.7-.2-1.06-.79-1.07-1.81,0-3.62-.06-5.43,0-.28,0-.71.58-.78,1a9.25,9.25,0,0,0,0,2.23c.06.88-.31,1.12-1,1.32a31.37,31.37,0,0,0-4.74,1.88c-1.86,1-2,1.51-3.55-.51-.18-.24-.48-.37-.66-.62-.59-.81-1.11-.56-1.7,0-.84.87-1.71,1.75-2.58,2.6s-.77,1.37.08,2.14a16.73,16.73,0,0,1,1.77,1.8,1.16,1.16,0,0,1,0,1,16.24,16.24,0,0,0-2.58,6.31c-.15.88-.51,1.1-1.17,1.09H73.8c-.58,0-.9.25-.9,1V33.3c0,.67.31.94.85.93.86,0,1.72.06,2.57,0s1.35.3,1.54,1.34a14.51,14.51,0,0,0,2.5,5.87.89.89,0,0,1-.17,1.31c-.64.59-1.25,1.24-1.86,1.85a1,1,0,0,0,0,1.66c1,1,2,2,2.92,3,.49.5,1,.64,1.47,0s1-.95,1.38-1.49a1.34,1.34,0,0,1,2-.41,14.75,14.75,0,0,0,5.76,2.46.92.92,0,0,1,.79,1s0,.1,0,.14c0,.79,0,1.58,0,2.36s.28,1.24,1,1.21S95.29,54.5,96.12,54.5Z" transform="translate(0 0)"/><path class="cls-1" d="M96.09,17a13.67,13.67,0,0,1,9.2,3.47A13.84,13.84,0,0,1,108.64,25a14.11,14.11,0,0,1,.72,10.31,13.05,13.05,0,0,1-5.24,7.17A14,14,0,0,1,86.29,41a14.58,14.58,0,0,1-4.08-8,12.85,12.85,0,0,1,.86-7.27,13.1,13.1,0,0,1,5.53-6.63A14.2,14.2,0,0,1,96.09,17ZM83.58,30.59a12.45,12.45,0,0,0,20.14,10.28,11.9,11.9,0,0,0,4.43-6.69,12.15,12.15,0,0,0-.62-8.11,12.55,12.55,0,0,0-4.81-5.69,12.15,12.15,0,0,0-8.34-1.82,12.33,12.33,0,0,0-8.67,5.3A10.58,10.58,0,0,0,83.58,30.59Z" transform="translate(0 0)"/><path class="cls-2" d="M88.4,30.47c1.18,1.27,2.3,2.41,3.36,3.63.19.21.14.71.2,1.07-.33,0-.75.13-.95-.05-.71-.66-1.34-1.4-2-2.11S87.73,31.69,87.15,31a1.07,1.07,0,0,1-.08-.9c1.28-1.46,2.6-2.9,4-4.29a.81.81,0,0,1,.92,0c.34.38.08.79-.23,1.12C90.62,28.07,89.55,29.23,88.4,30.47Z" transform="translate(0 0)"/><path class="cls-2" d="M105,30.54l-3.47,3.82a3.11,3.11,0,0,1-.69.71,1.05,1.05,0,0,1-.93.11c-.42-.29-.22-.74.07-1,.9-1,1.8-2,2.71-3l.67-.71-2.93-3.22s-.1,0-.12-.07c-.27-.41-.92-.73-.44-1.37s.87-.09,1.25.33c1.07,1.17,2.16,2.32,3.23,3.5C104.58,29.93,104.8,30.23,105,30.54Z" transform="translate(0 0)"/><path class="cls-2" d="M98.65,25.53c-.26.5-.48.88-.65,1.29-1,2.31-1.91,4.66-2.87,7a11.46,11.46,0,0,1-.8,1.74c-.17.26-.56.31-.87.46-.08-.33-.31-.76-.22-1,.56-1.43,1.22-2.81,1.81-4.22s1.06-2.62,1.6-3.91a10.44,10.44,0,0,1,.79-1.65.8.8,0,0,1,.73-.21C98.34,25,98.47,25.33,98.65,25.53Z" transform="translate(0 0)"/></svg>