<?xml version="1.0" encoding="utf-8"?>
<!-- Generator: Adobe Illustrator 24.3.0, SVG Export Plug-In . SVG Version: 6.00 Build 0)  -->
<svg version="1.1" id="Capa_1" xmlns="http://www.w3.org/2000/svg" xmlns:xlink="http://www.w3.org/1999/xlink" x="0px" y="0px"
	 viewBox="0 0 122 129" style="enable-background:new 0 0 122 129;" xml:space="preserve">
<style type="text/css">
	.st0{fill:#FFFFFF;}
	.st1{fill:#049DC3;}
</style>
<path class="st0" d="M0,128.76h122c-0.32,0.12-0.66,0.2-1,0.23H1.07C0.71,128.95,0.35,128.87,0,128.76z"/>
<path class="st1" d="M98.88,53.43c0,3.81,0,7.61,0,11.42c0,1.69-0.81,2.49-2.54,2.49c-5,0-10.08,0-15.12,0
	c-0.93-0.11-1.83,0.39-2.22,1.25c-1.83,2.95-4.13,5.57-6.83,7.75c-2.53,1.94-5.34,3.48-8.33,4.57c-4.43,1.72-9.25,2.15-13.91,1.24
	c-4.16-0.69-8.1-2.36-11.49-4.87c-5.22-3.74-9.08-9.08-11-15.2c-1.6-5-1.95-10.31-1-15.47c0.78-4.67,2.69-9.09,5.56-12.86
	c3.12-4.11,7.26-7.34,12-9.37c5.55-2.47,11.78-2.96,17.64-1.38c3.79,0.94,7.33,2.71,10.36,5.18c3.44,2.64,6.18,6.07,8,10
	c0.29,0.82,1.14,1.3,2,1.14c4.69-0.06,9.37,0,14.06,0c2.1,0,2.85,0.75,2.85,2.82L98.88,53.43z M31.42,52.74
	c-0.05,8.1,3.99,15.68,10.74,20.16c8.4,5.76,20.13,4.37,26.49-1.09c2.91-2.41,5.26-5.41,6.91-8.81c5.02-10.65,1.98-23.36-7.32-30.59
	c-3.03-2.25-6.57-3.73-10.31-4.3c-3.05-0.51-6.18-0.28-9.13,0.67c-5.24,1.47-9.79,4.74-12.87,9.22
	C32.92,42.32,31.34,47.48,31.42,52.74z"/>
<path class="st1" d="M99.58,99.27c0.36,1.91-1.45,3.58-3,4.11c-0.82,0.33-1.76,0.04-2.24-0.7c-1.33-1.55-2.79-3-4.21-4.48
	c-2.39-2.48-4.8-4.93-7.18-7.42s-5-5.27-7.46-7.94c-0.73-0.86-0.85-2.09-0.29-3.07c0.41-1.26,1.49-2.19,2.8-2.41
	c1.13-0.24,2.31,0.14,3.08,1c3.48,3.73,7,7.38,10.55,11.07c2.34,2.46,4.63,5,7,7.41C99.27,97.61,99.83,98.32,99.58,99.27z"/>
<path class="st1" d="M74.17,59.14c-1.07,3-2.72,5.76-4.86,8.12c-0.56,0.56-1.08,1.15-1.68,1.65c-2.16,1.97-5.03,2.97-7.95,2.75
	c-2.87-0.25-5.79,0-8.69,0c-2.21,0-3.31-1.08-3.31-3.27c0-9.91,0-19.83,0-29.74c0-2.49,1-3.46,3.46-3.46c4.84,0,9.69,0.09,14.53,0
	c1.51-0.08,2.95,0.6,3.85,1.81c3.04,3.54,5,7.87,5.66,12.49c0.17,1.81,0.17,3.62,0,5.43c-0.08,1.23-1,1.64-2.09,1
	c-4.92-3.07-9.84-6.16-14.75-9.27c-1.5-0.94-2.93-2-4.49-2.85c-0.58-0.21-1.23-0.12-1.73,0.25c-0.43,0.52-0.2,1.25,0.53,1.68
	c0.73,0.43,1.32,1,2,1.42c1.24,0.78,2.52,1.5,3.77,2.28C63,52.25,67.56,55.15,72.14,58C72.74,58.41,73.38,58.71,74.17,59.14z"/>
<path class="st1" d="M93.13,78.51"/>
<path class="st0" d="M81.55,57.78c0.09-0.73,0.06-1.32,0.25-1.73c0.25-0.46,0.58-0.81,0.95-1.02c1.61-0.97,3.25-1.87,4.87-2.82
	c0.67-0.38,1.33-0.81,1.99-1.23c1.38-0.86,2.75-1.75,4.14-2.59c0.28-0.17,0.57-0.51,0.89-0.17c0.54,0.66,0.44,1.3-0.31,1.76
	c-0.97,0.61-1.97,1.15-2.94,1.76c-1.15,0.72-2.29,1.47-3.45,2.22c-0.34,0.22-0.71,0.33-1.06,0.53c-1.44,0.83-2.86,1.66-4.27,2.51
	C82.26,57.21,81.96,57.46,81.55,57.78z"/>
</svg>
