<svg id="Capa_1" data-name="Capa 1" xmlns="http://www.w3.org/2000/svg" viewBox="0 0 324.5 75.81"><defs><style>.cls-1{fill:#38393a;stroke:#393939;stroke-miterlimit:10;}.cls-2{fill:#4e99b9;}</style></defs><title>logovector</title><path class="cls-1" d="M631.69,431.3a2,2,0,0,0-.69.21v10.71a1.13,1.13,0,0,0,.24.11,4.73,4.73,0,0,0,2.51,0,1.11,1.11,0,0,0,.24-.11V431.51a2,2,0,0,0-.69-.21A5.27,5.27,0,0,0,631.69,431.3Z" transform="translate(-562 -410.74)"/><path class="cls-1" d="M666.56,447.73a1.51,1.51,0,0,0,.44-1.06V413.74a1.49,1.49,0,0,0-.83-1.34,1.51,1.51,0,0,0-1.34,0,1.49,1.49,0,0,0-.83,1.34v32.94a1.51,1.51,0,0,0,.44,1.06A1.54,1.54,0,0,0,666.56,447.73Z" transform="translate(-562 -410.74)"/><path class="cls-1" d="M653.45,480c-2.37-.23-4.23-.41-5.83-1.71-1.13-.92-1.89-2.35-2.46-4.62l0-.09v-.09c.69-6.63,4.22-7,8.3-7.49a18.4,18.4,0,0,1,3.56-.05v-5a22.13,22.13,0,0,0-5.43.05c-2.66.36-5.41.73-7.73,2.87a10.77,10.77,0,0,0-2.87,4.79,11.9,11.9,0,0,0,0,8.64,10.79,10.79,0,0,0,2.87,3.83,13.18,13.18,0,0,0,5.79,2.89,17.62,17.62,0,0,0,8.29.11L657.1,480A21.64,21.64,0,0,1,653.45,480Z" transform="translate(-562 -410.74)"/><path class="cls-1" d="M698.32,431.31a2.27,2.27,0,0,0-.82.25v11.62a1.28,1.28,0,0,0,.31.14,5.61,5.61,0,0,0,2.88,0,1.28,1.28,0,0,0,.31-.14V431.56a2.27,2.27,0,0,0-.82-.25A6.15,6.15,0,0,0,698.32,431.31Z" transform="translate(-562 -410.74)"/><path class="cls-1" d="M629.22,471.92a14.56,14.56,0,0,0-1.92-1c-1-.44-1.67-.71-2.23-.93-1-.4-1.56-.6-2-1.25a3.45,3.45,0,0,1,0-3.55c1-1.49,3.83-2,6.92-.56V461c-.83,0-1.67,0-2.51,0s-1.5-.06-2.05-.09a11.21,11.21,0,0,0-2.85.08,7.29,7.29,0,0,0-2.82.93,6.62,6.62,0,0,0-2.78,7.43,6.32,6.32,0,0,0,6.49,4.64,3.9,3.9,0,0,1,2.85,1.39,2.85,2.85,0,0,1,.67,2.18,3.19,3.19,0,0,1-2.35,2.41l-.15,0H617v5h8.39c.63-.29,1.26-.6,1.87-.94a15.13,15.13,0,0,0,2.91-1.94,5.73,5.73,0,0,0,.93-.92,5.5,5.5,0,0,0,.91-2.77,7.16,7.16,0,0,0,0-2.82A6.32,6.32,0,0,0,629.22,471.92Z" transform="translate(-562 -410.74)"/><path class="cls-1" d="M680.34,461h0a13.06,13.06,0,0,0-3.84-.56,11.07,11.07,0,0,0-5.74,1.52,12,12,0,0,0-3.84,3.84,11.85,11.85,0,0,0-1.92,4.8,12.62,12.62,0,0,0,1,6.75,11.81,11.81,0,0,0,2.88,4.82,10.87,10.87,0,0,0,6.7,2.86,12.14,12.14,0,0,0,7.69-1.92,12.32,12.32,0,0,0,3.84-3.84c2.89-4.75,1.16-10,1-10.57A12.84,12.84,0,0,0,680.34,461Zm2.6,14.75a6.66,6.66,0,0,1-3.24,3.23,6.35,6.35,0,0,1-2.65.57,7,7,0,0,1-2.76-.57,6.67,6.67,0,0,1-3.24-3.23,7,7,0,0,1,0-6.48,7.15,7.15,0,0,1,2.14-2.15,6.75,6.75,0,0,1,2.15-1.07,6.33,6.33,0,0,1,3.25,0,6.86,6.86,0,0,1,4.32,3.24A7.22,7.22,0,0,1,682.95,475.72Z" transform="translate(-562 -410.74)"/><path class="cls-1" d="M599.17,412.39a1.51,1.51,0,0,0-1.34,0,1.49,1.49,0,0,0-.83,1.34v32.94a1.51,1.51,0,0,0,.44,1.06,1.54,1.54,0,0,0,2.12,0,1.51,1.51,0,0,0,.44-1.06V413.74A1.49,1.49,0,0,0,599.17,412.39Z" transform="translate(-562 -410.74)"/><path class="cls-1" d="M648.33,442.24a2.76,2.76,0,0,0,2.35,0c.23-.12.33-.26.33-.34V423.83c0-.12-.23-.36-.74-.5a3,3,0,0,0-1.52,0c-.5.14-.74.38-.74.5V441.9C648,442,648.1,442.12,648.33,442.24Z" transform="translate(-562 -410.74)"/><path class="cls-1" d="M564.32,431.31a2.27,2.27,0,0,0-.82.25v11.62a1.28,1.28,0,0,0,.31.14,5.62,5.62,0,0,0,2.88,0,1.28,1.28,0,0,0,.31-.14V431.56a2.27,2.27,0,0,0-.82-.25A6.15,6.15,0,0,0,564.32,431.31Z" transform="translate(-562 -410.74)"/><path class="cls-1" d="M580.33,442.24a2.76,2.76,0,0,0,2.35,0c.23-.12.33-.26.33-.34V423.83c0-.12-.23-.36-.74-.5a3,3,0,0,0-1.52,0c-.5.14-.74.38-.74.5V441.9C580,442,580.1,442.12,580.33,442.24Z" transform="translate(-562 -410.74)"/><path class="cls-1" d="M681.33,442.24a2.76,2.76,0,0,0,2.35,0c.23-.12.33-.26.33-.34V423.83c0-.12-.23-.36-.74-.5a3,3,0,0,0-1.52,0c-.5.14-.74.38-.74.5V441.9C681,442,681.1,442.12,681.33,442.24Z" transform="translate(-562 -410.74)"/><path class="cls-1" d="M588.45,480c-2.37-.23-4.23-.41-5.83-1.71-1.13-.92-1.89-2.35-2.46-4.62l0-.09v-.09c.69-6.63,4.22-7,8.3-7.49a18.4,18.4,0,0,1,3.56-.05v-5a22.13,22.13,0,0,0-5.43.05c-2.66.36-5.41.73-7.73,2.87a10.77,10.77,0,0,0-2.87,4.79,11.9,11.9,0,0,0,0,8.64,10.79,10.79,0,0,0,2.87,3.83,13.18,13.18,0,0,0,5.79,2.89,17.62,17.62,0,0,0,8.29.11L592.1,480A21.64,21.64,0,0,1,588.45,480Z" transform="translate(-562 -410.74)"/><path class="cls-1" d="M614,424.79l0,16.47-.33.41.35-.35a2.09,2.09,0,0,0,3,0l0-16.46A3.15,3.15,0,0,0,614,424.79Z" transform="translate(-562 -410.74)"/><rect class="cls-1" x="41" y="51.26" width="4" height="22"/><polygon class="cls-2" points="187.5 25.81 173 8.26 172 8.26 171 8.26 171 30.26 173 30.26 173 11.26 187 29.26 187 29.26 190 29.26 189.5 7.76 187.5 7.76 187.5 25.81"/><path class="cls-2" d="M765.79,437.79a5.72,5.72,0,0,1-4.23,1.71,5.23,5.23,0,0,1-2.43-.79l-1.86-1.85a6.86,6.86,0,0,1-.82-1.67,6.28,6.28,0,0,1-.31-1.69H770.5v-4l0-.24a8.42,8.42,0,0,0-13.58-4.54l-.13.1-2.2,3.3,0,.19a20.12,20.12,0,0,0-.41,4,10.2,10.2,0,0,0,.44,3.48,8.87,8.87,0,0,0,1.13,2.25l2.12,2.14.17.13a7.25,7.25,0,0,0,3.48,1.16h.41a7.86,7.86,0,0,0,5.35-2.3l2-2-1.41-1.41Zm-9.35-8.9,1.8-2.7a6.7,6.7,0,0,1,6.83-.79,6.8,6.8,0,0,1,3.43,4.23v1.87H756.13A18.25,18.25,0,0,1,756.44,428.89Z" transform="translate(-562 -410.74)"/><polygon class="cls-2" points="233.69 25.59 230.22 12.58 228.84 12.59 224.5 25.6 220.45 13.45 218.55 14.08 224 30.26 225 30.26 229.39 17.24 233 30.26 234 30.26 240.43 14.13 238.57 13.39 233.69 25.59"/><polygon class="cls-2" points="275 20.79 281.68 30.34 283.32 29.19 276.84 19.93 283.15 14.52 281.85 13 275 18.87 275 8.26 272 8.26 272 30.26 275 30.26 275 20.79"/><rect class="cls-2" x="287" y="13.26" width="3" height="16"/><path class="cls-2" d="M868.09,424.69c-2.74-2-6.08-.57-7-.09a7.61,7.61,0,0,0-1.55,1V424.5h-2v16h2V428.78a5.92,5.92,0,0,1,2.45-2.38c.7-.36,3.14-1.42,5-.09a4.43,4.43,0,0,1,1.59,3.19v11h2V429.44A6.48,6.48,0,0,0,868.09,424.69Z" transform="translate(-562 -410.74)"/><path class="cls-2" d="M730.57,478.59l1.85.76,3.41-8.34,9.31,0,3.43,8.38,1.85-.76-8.85-21.64-2.11-.09Zm6.08-10.05,3.84-9.39,3.83,9.36Z" transform="translate(-562 -410.74)"/><path class="cls-2" d="M855.62,475.12l-5.19-13-1.86.74,6,15h0l-2.07,5.45v.18a1,1,0,0,1-2,0h-2a3,3,0,0,0,6,.2l7.94-20.84-1.87-.71Z" transform="translate(-562 -410.74)"/><path class="cls-2" d="M764.51,473.67a3.75,3.75,0,0,1-.72,3.12,3.51,3.51,0,0,1-1.6.76,7.21,7.21,0,0,1-4.39,0,5.14,5.14,0,0,1-1.69-.84,5.45,5.45,0,0,1-1.68-2.56,9.42,9.42,0,0,1,0-6.29,6.61,6.61,0,0,1,2.6-3.51,5.43,5.43,0,0,1,3.38-.85,4.49,4.49,0,0,1,3.29,1.61,4.1,4.1,0,0,1,.8,2.41l2,0a6.1,6.1,0,0,0-1.2-3.59,6.32,6.32,0,0,0-4.71-2.39,7.4,7.4,0,0,0-4.62,1.15,8.61,8.61,0,0,0-3.4,4.49,11.56,11.56,0,0,0,0,7.71,7.39,7.39,0,0,0,2.32,3.44,7,7,0,0,0,2.31,1.16,8.89,8.89,0,0,0,2.78.44,9.51,9.51,0,0,0,2.83-.44,5.31,5.31,0,0,0,2.4-1.24,5.61,5.61,0,0,0,1.28-4.88Z" transform="translate(-562 -410.74)"/><path class="cls-2" d="M845.21,467.39c-.14-.2-.31-.41-.49-.63a8.83,8.83,0,0,0-1.9-1.63,3.07,3.07,0,0,0-.92-.51,3.43,3.43,0,0,0-1.15-.19h-1.42a3.37,3.37,0,0,0-.85.11,6.32,6.32,0,0,0-2.38.9,4.85,4.85,0,0,0-1.09,1,6.14,6.14,0,0,0-2.83-2,7.2,7.2,0,0,0-4.66,0,6,6,0,0,0-1.57.85v-.91h-2V478h2l0-9.7a3.84,3.84,0,0,1,2.34-2.27,4.9,4.9,0,0,1,3.16,0,4.13,4.13,0,0,1,2.39,2l.06,0-.1.38L834,478h2l-.27-9.28.13-.48.45-.46.1-.13a3.06,3.06,0,0,1,.89-.89,4.23,4.23,0,0,1,1.61-.59l.1,0a1.33,1.33,0,0,1,.32,0h1.42a1.2,1.2,0,0,1,.4.07,1.06,1.06,0,0,1,.34.19l.11.08a7,7,0,0,1,1.55,1.32l.3.37.1.43v9.52l2,0v-9.57l-.21-1Z" transform="translate(-562 -410.74)"/><path class="cls-2" d="M815.93,461.6a8.72,8.72,0,0,0-9,1.11l-.13.1-2.2,3.3,0,.19a20.12,20.12,0,0,0-.41,4,10.2,10.2,0,0,0,.44,3.48,8.87,8.87,0,0,0,1.13,2.25l2.12,2.14.17.13a7.25,7.25,0,0,0,3.48,1.16h.41a7.86,7.86,0,0,0,5.35-2.3l2-2-1.41-1.41-2,2a5.71,5.71,0,0,1-4.23,1.71,5.23,5.23,0,0,1-2.43-.79l-1.86-1.85a6.86,6.86,0,0,1-.82-1.67,6.28,6.28,0,0,1-.31-1.69H820.5v-4l0-.24A8.74,8.74,0,0,0,815.93,461.6Zm2.57,7.9H806.13a18.25,18.25,0,0,1,.31-2.61l1.8-2.7a6.7,6.7,0,0,1,6.83-.79,6.8,6.8,0,0,1,3.43,4.23Z" transform="translate(-562 -410.74)"/><path class="cls-2" d="M884.5,424.57a6,6,0,0,0-1.62-1,6.78,6.78,0,0,0-4.67,0,8.65,8.65,0,0,0-4.53,3.39l-.1.19a16.08,16.08,0,0,0-1.07,4.27,11.46,11.46,0,0,0,0,3.27,9.77,9.77,0,0,0,3.33,5.58l.19.13a10.06,10.06,0,0,0,3.33,1.11,8.2,8.2,0,0,0,1.23.11,5.21,5.21,0,0,0,1.13-.12,5.73,5.73,0,0,0,2.49-1.27l.29-.29v2.59a3.67,3.67,0,0,1-.77,2.35,4.18,4.18,0,0,1-4.8.74,4.8,4.8,0,0,1-2.45-3.29l-2,.4a6.85,6.85,0,0,0,3.55,4.71,6.73,6.73,0,0,0,2.84.62,5.29,5.29,0,0,0,5.58-5.52V424h-2Zm0,12.51-1.64,1.65a3.68,3.68,0,0,1-1.57.79,4.2,4.2,0,0,1-1.64,0,8,8,0,0,1-2.57-.84,7.75,7.75,0,0,1-2.59-4.34,9.64,9.64,0,0,1,0-2.72,14.05,14.05,0,0,1,.89-3.63,6.63,6.63,0,0,1,3.41-2.52,4.79,4.79,0,0,1,3.33,0,4.6,4.6,0,0,1,2.38,2.44Z" transform="translate(-562 -410.74)"/><path class="cls-2" d="M825.5,428.54a2.36,2.36,0,0,1,4.23-1.4l1.53-1.28a4.46,4.46,0,0,0-5.17-1.27,4.15,4.15,0,0,0-.6.33V424h-2v18h2Z" transform="translate(-562 -410.74)"/><path class="cls-2" d="M773.5,436.44a4.65,4.65,0,0,0,1.29,3.77,4.58,4.58,0,0,0,3.27,1.32,4.07,4.07,0,0,0,.58,0l-.29-2a2.54,2.54,0,0,1-2.87-2.87V426.5h4v-2h-4v-6h-2v6H772v2h1.5Z" transform="translate(-562 -410.74)"/><path class="cls-2" d="M797,462.64a6.58,6.58,0,0,0-5.85-1.07,7.4,7.4,0,0,0-3.5,3.4,11.73,11.73,0,0,0-1.09,2.19l-.05.19a16.44,16.44,0,0,0,0,5.32,9.22,9.22,0,0,0,1.14,3.38,8.1,8.1,0,0,0,2.27,2.28,9,9,0,0,0,2.2,1.11,6.25,6.25,0,0,0,2.45.51,5.28,5.28,0,0,0,2.37-.54l.06,0v.14h3v-23h-3Zm0,14.26a3.3,3.3,0,0,1-.94.71,3.77,3.77,0,0,1-3.13,0l-.1,0a7,7,0,0,1-1.75-.87,6.1,6.1,0,0,1-1.73-1.72,7.51,7.51,0,0,1-.85-2.62,14.44,14.44,0,0,1,0-4.58,9.81,9.81,0,0,1,.87-1.72c.75-1.17,1.4-2.19,2.5-2.6a4.71,4.71,0,0,1,4.1.9,6,6,0,0,1,1,.9Z" transform="translate(-562 -410.74)"/><rect class="cls-2" x="287" y="8.1" width="3" height="2.16"/><path class="cls-2" d="M782.42,477.88h0l.08-.18V465.5l0-.23a5.82,5.82,0,0,0-2.44-3.62c-2.28-1.43-4.8-.49-5.88-.09a8.89,8.89,0,0,0-3.38,2.25l-1.17,2.24,1.79.89.93-1.86a6.88,6.88,0,0,1,2.52-1.65c.87-.32,2.68-1,4.12-.09a3.78,3.78,0,0,1,1.53,2.27v2.77a22,22,0,0,0-5.15.12,7.12,7.12,0,0,0-3.44,1.18,6.16,6.16,0,0,0-2.39,3.6,5.78,5.78,0,0,0,0,2.43,5.67,5.67,0,0,0,1.21,2.43l.17.16a7.76,7.76,0,0,0,4.58,1.49,7.72,7.72,0,0,0,2.31-.35,7.44,7.44,0,0,0,2.58-1.45,1.75,1.75,0,0,0,.28,1.05,1.9,1.9,0,0,0,1.26.79,2.43,2.43,0,0,0,.45,0,3,3,0,0,0,1.7-.57l-1.15-1.63A1,1,0,0,1,782.42,477.88Zm-1.92-2.79-.76.76a5.63,5.63,0,0,1-2.54,1.7,5.8,5.8,0,0,1-5-.79,3.66,3.66,0,0,1-.71-1.48,3.71,3.71,0,0,1,0-1.57,4.12,4.12,0,0,1,1.61-2.4,5.17,5.17,0,0,1,2.56-.82,20,20,0,0,1,4.86-.09Z" transform="translate(-562 -410.74)"/><path class="cls-2" d="M815.91,423.59a8.32,8.32,0,0,0-6.49,0h0a9.93,9.93,0,0,0-4.79,4.46,10.34,10.34,0,0,0-1,4.53,9.83,9.83,0,0,0,1,5.4,8,8,0,0,0,3.43,3.41,7.4,7.4,0,0,0,3.35.78,9.19,9.19,0,0,0,9.07-7.43,10.22,10.22,0,0,0,0-5.53A8.4,8.4,0,0,0,815.91,423.59Zm2.62,10.67a7.72,7.72,0,0,1-1.76,3.56c-1.78,1.91-5.19,3.11-7.82,1.79a6,6,0,0,1-2.57-2.59,7.89,7.89,0,0,1-.77-4.37,8.36,8.36,0,0,1,.79-3.71,7.93,7.93,0,0,1,3.81-3.53,6.41,6.41,0,0,1,4.89,0,6.62,6.62,0,0,1,3.45,4.37A8.2,8.2,0,0,1,818.53,434.26Z" transform="translate(-562 -410.74)"/><path class="cls-1" d="M601,413.74a2.49,2.49,0,0,0-1.38-2.24,2.52,2.52,0,0,0-2.24,0,2.49,2.49,0,0,0-1.38,2.24v32.94a2.5,2.5,0,0,0,5,0Zm-1,32.94a1.51,1.51,0,0,1-.44,1.06,1.54,1.54,0,0,1-2.12,0,1.51,1.51,0,0,1-.44-1.06V413.74a1.49,1.49,0,0,1,.83-1.34,1.51,1.51,0,0,1,1.34,0,1.49,1.49,0,0,1,.83,1.34Z" transform="translate(-562 -410.74)"/><path class="cls-1" d="M618,441.26v-16.4a1.08,1.08,0,0,0-.6-1,4.27,4.27,0,0,0-3.8,0,1.08,1.08,0,0,0-.6,1v16.4a1.09,1.09,0,0,0,.32.77,3.09,3.09,0,0,0,4.37,0A1.09,1.09,0,0,0,618,441.26Zm-1,.06a2.09,2.09,0,0,1-3,0l-.35.35.33-.41,0-16.47a3.15,3.15,0,0,1,3,.07Z" transform="translate(-562 -410.74)"/><path class="cls-1" d="M633.48,430.31a6.18,6.18,0,0,0-2,0c-1.33.22-1.52.78-1.52,1.09v10.94c0,.29.16.69.93.94a5.76,5.76,0,0,0,3.14,0c.77-.26.93-.65.93-.94V431.4C635,431.09,634.8,430.53,633.48,430.31Zm.52,11.91a1.11,1.11,0,0,1-.24.11,4.73,4.73,0,0,1-2.51,0,1.13,1.13,0,0,1-.24-.11V431.51a2,2,0,0,1,.69-.21,5.27,5.27,0,0,1,1.63,0,2,2,0,0,1,.69.21Z" transform="translate(-562 -410.74)"/><path class="cls-1" d="M566.33,430.32a7.22,7.22,0,0,0-2.17,0h0c-1.45.23-1.66.81-1.66,1.14v11.83c0,.3.17.72,1,1a6.62,6.62,0,0,0,3.49,0c.83-.27,1-.68,1-1V431.45C568,431.13,567.78,430.55,566.33,430.32Zm.67,12.86a1.28,1.28,0,0,1-.31.14,5.62,5.62,0,0,1-2.88,0,1.28,1.28,0,0,1-.31-.14V431.56a2.27,2.27,0,0,1,.82-.25,6.15,6.15,0,0,1,1.85,0,2.27,2.27,0,0,1,.82.25Z" transform="translate(-562 -410.74)"/><path class="cls-1" d="M667.27,448.44a2.48,2.48,0,0,0,.73-1.77V413.74a2.49,2.49,0,0,0-1.38-2.24,2.52,2.52,0,0,0-2.24,0,2.49,2.49,0,0,0-1.38,2.24v32.94a2.5,2.5,0,0,0,4.27,1.77ZM664,446.67V413.74a1.49,1.49,0,0,1,.83-1.34,1.51,1.51,0,0,1,1.34,0,1.49,1.49,0,0,1,.83,1.34v32.94a1.51,1.51,0,0,1-.44,1.06,1.54,1.54,0,0,1-2.12,0A1.51,1.51,0,0,1,664,446.67Z" transform="translate(-562 -410.74)"/><path class="cls-1" d="M579.85,443.12a3.78,3.78,0,0,0,3.31,0,1.44,1.44,0,0,0,.85-1.21V423.83c0-.65-.56-1.21-1.47-1.46a4,4,0,0,0-2.05,0h0c-.91.25-1.47.81-1.47,1.46V441.9A1.44,1.44,0,0,0,579.85,443.12Zm.15-19.28c0-.12.23-.36.74-.5a3,3,0,0,1,1.52,0c.5.14.74.38.74.5V441.9c0,.08-.1.21-.33.34a2.76,2.76,0,0,1-2.35,0c-.23-.12-.33-.26-.33-.34Z" transform="translate(-562 -410.74)"/><path class="cls-1" d="M647.85,443.12a3.78,3.78,0,0,0,3.31,0,1.44,1.44,0,0,0,.85-1.21V423.83c0-.65-.56-1.21-1.47-1.46a4,4,0,0,0-2.05,0h0c-.91.25-1.47.81-1.47,1.46V441.9A1.44,1.44,0,0,0,647.85,443.12Zm.15-19.28c0-.12.23-.36.74-.5a3,3,0,0,1,1.52,0c.5.14.74.38.74.5V441.9c0,.08-.1.21-.33.34a2.76,2.76,0,0,1-2.35,0c-.23-.12-.33-.26-.33-.34Z" transform="translate(-562 -410.74)"/><path class="cls-1" d="M680.85,443.12a3.78,3.78,0,0,0,3.31,0,1.43,1.43,0,0,0,.84-1.21V423.83c0-.65-.56-1.21-1.47-1.46a4,4,0,0,0-2.05,0h0c-.91.25-1.47.81-1.47,1.46V441.9A1.44,1.44,0,0,0,680.85,443.12Zm.15-19.28c0-.12.23-.36.74-.5a3,3,0,0,1,1.52,0c.5.14.74.38.74.5V441.9c0,.08-.1.21-.33.34a2.76,2.76,0,0,1-2.35,0c-.23-.12-.33-.26-.33-.34Z" transform="translate(-562 -410.74)"/><path class="cls-1" d="M700.33,430.32a7.2,7.2,0,0,0-2.17,0h0c-1.45.23-1.67.81-1.67,1.14v11.83c0,.3.17.72,1,1a6.63,6.63,0,0,0,3.49,0c.83-.27,1-.68,1-1V431.45C702,431.13,701.78,430.55,700.33,430.32Zm.67,12.86a1.28,1.28,0,0,1-.31.14,5.61,5.61,0,0,1-2.88,0,1.28,1.28,0,0,1-.31-.14V431.56a2.27,2.27,0,0,1,.82-.25,6.15,6.15,0,0,1,1.85,0,2.27,2.27,0,0,1,.82.25Z" transform="translate(-562 -410.74)"/><path class="cls-1" d="M601,486h8V460h-8Zm2-24h4v22h-4Z" transform="translate(-562 -410.74)"/><path class="cls-1" d="M592.45,479a20.37,20.37,0,0,1-3.9,0c-2.28-.22-3.93-.38-5.3-1.49a7.17,7.17,0,0,1-2.1-4c.63-5.75,3.33-6.05,7.41-6.51a17.37,17.37,0,0,1,3.89,0l.56.06v-7l-.43-.06a23,23,0,0,0-6.13,0c-2.68.36-5.72.77-8.27,3.13a11.82,11.82,0,0,0-3.13,5.21,12.83,12.83,0,0,0,0,9.36,11.74,11.74,0,0,0,3.13,4.17,14.26,14.26,0,0,0,6.21,3.11,18,18,0,0,0,4.57.58,19.31,19.31,0,0,0,4.68-.58l.46-.12L592.9,479Zm-7.83,5a13.18,13.18,0,0,1-5.79-2.89A10.79,10.79,0,0,1,576,477.3a11.9,11.9,0,0,1,0-8.64,10.77,10.77,0,0,1,2.87-4.79c2.32-2.14,5.07-2.51,7.73-2.87a22.13,22.13,0,0,1,5.43-.05v5a18.4,18.4,0,0,0-3.56.05c-4.08.46-7.61.86-8.3,7.49v.09l0,.09c.57,2.27,1.33,3.7,2.46,4.62,1.6,1.3,3.47,1.48,5.83,1.71a21.64,21.64,0,0,0,3.65,0l.82,4.09A17.62,17.62,0,0,1,584.63,484Z" transform="translate(-562 -410.74)"/><path class="cls-1" d="M657.45,479a20.37,20.37,0,0,1-3.9,0c-2.28-.22-3.93-.38-5.3-1.49a7.17,7.17,0,0,1-2.1-4c.63-5.75,3.33-6.05,7.41-6.51a17.37,17.37,0,0,1,3.89,0l.56.06v-7l-.43-.06a23,23,0,0,0-6.13,0c-2.68.36-5.72.77-8.27,3.13a11.82,11.82,0,0,0-3.13,5.21,12.83,12.83,0,0,0,0,9.36,11.74,11.74,0,0,0,3.13,4.17,14.26,14.26,0,0,0,6.21,3.11,18,18,0,0,0,4.57.58,19.31,19.31,0,0,0,4.68-.58l.46-.12L657.9,479Zm-7.83,5a13.18,13.18,0,0,1-5.79-2.89A10.79,10.79,0,0,1,641,477.3a11.9,11.9,0,0,1,0-8.64,10.77,10.77,0,0,1,2.87-4.79c2.32-2.14,5.07-2.51,7.73-2.87a22.13,22.13,0,0,1,5.43-.05v5a18.4,18.4,0,0,0-3.56.05c-4.08.46-7.61.86-8.3,7.49v.09l0,.09c.57,2.27,1.33,3.7,2.46,4.62,1.6,1.3,3.47,1.48,5.83,1.71a21.64,21.64,0,0,0,3.65,0l.82,4.09A17.62,17.62,0,0,1,649.63,484Z" transform="translate(-562 -410.74)"/><path class="cls-1" d="M629.78,471.09a14.83,14.83,0,0,0-2.07-1c-1-.45-1.74-.74-2.28-.95-1-.38-1.27-.5-1.51-.87a2.45,2.45,0,0,1,0-2.45c.82-1.24,3.56-1.47,6.33.15l.75.44V460h-.51c-1,0-2,0-3,0-.83,0-1.48-.06-2-.08a12.13,12.13,0,0,0-3.09.09,8.19,8.19,0,0,0-3.16,1.06,7.63,7.63,0,0,0-3.22,4.29,7.72,7.72,0,0,0,0,4.28,7.5,7.5,0,0,0,3.22,4.29,7.4,7.4,0,0,0,4.23,1.07,2.88,2.88,0,0,1,2.08,1,1.86,1.86,0,0,1,.46,1.41,2.2,2.2,0,0,1-1.58,1.57H616v7h9.61l.1,0c.69-.31,1.37-.65,2-1a16,16,0,0,0,3.09-2.06,6.55,6.55,0,0,0,1.07-1.08,6.4,6.4,0,0,0,1.09-3.23,8.13,8.13,0,0,0,0-3.18A7.28,7.28,0,0,0,629.78,471.09Zm2.22,7.35a5.5,5.5,0,0,1-.91,2.77,5.73,5.73,0,0,1-.93.92,15.13,15.13,0,0,1-2.91,1.94c-.61.34-1.24.65-1.87.94H617v-5h7.5l.15,0a3.19,3.19,0,0,0,2.35-2.41,2.85,2.85,0,0,0-.67-2.18,3.9,3.9,0,0,0-2.85-1.39,6.32,6.32,0,0,1-6.49-4.64,6.62,6.62,0,0,1,2.78-7.43,7.29,7.29,0,0,1,2.82-.93,11.21,11.21,0,0,1,2.85-.08c.55,0,1.21.06,2.05.09s1.68,0,2.51,0v3.66c-3.08-1.49-5.93-.93-6.92.56a3.45,3.45,0,0,0,0,3.55c.43.65.95.85,2,1.25.56.22,1.26.49,2.23.93a14.56,14.56,0,0,1,1.92,1,6.32,6.32,0,0,1,2.79,3.7A7.16,7.16,0,0,1,632,478.44Z" transform="translate(-562 -410.74)"/><path class="cls-1" d="M678.62,466a6.33,6.33,0,0,0-3.25,0,6.75,6.75,0,0,0-2.15,1.07,7.15,7.15,0,0,0-2.14,2.15,7,7,0,0,0,0,6.48,6.67,6.67,0,0,0,3.24,3.23,7,7,0,0,0,2.76.57,6.35,6.35,0,0,0,2.65-.57,6.66,6.66,0,0,0,3.24-3.23,7.22,7.22,0,0,0,0-6.46A6.86,6.86,0,0,0,678.62,466Zm3.43,9.26a5.69,5.69,0,0,1-2.76,2.77,5.78,5.78,0,0,1-4.59,0,5.69,5.69,0,0,1-2.76-2.77,5.94,5.94,0,0,1,0-5.52,6.22,6.22,0,0,1,1.86-1.85,5.75,5.75,0,0,1,1.85-.93,5.08,5.08,0,0,1,1.35-.18,5.62,5.62,0,0,1,1.4.18,6,6,0,0,1,3.68,2.76A6.2,6.2,0,0,1,682.05,475.28Z" transform="translate(-562 -410.74)"/><path class="cls-1" d="M680.66,460h0c-.57-.19-5.75-1.76-10.41,1a13,13,0,0,0-4.16,4.16,12.79,12.79,0,0,0-2.08,5.2,13.69,13.69,0,0,0,1,7.25,12.8,12.8,0,0,0,3.12,5.18,11.84,11.84,0,0,0,7.3,3.14q.59.05,1.17.05a13.59,13.59,0,0,0,11.3-6.29c3.14-5.15,1.27-10.8,1-11.43A13.86,13.86,0,0,0,680.66,460Zm6.42,19.21a12.32,12.32,0,0,1-3.84,3.84,12.14,12.14,0,0,1-7.69,1.92,10.87,10.87,0,0,1-6.7-2.86,11.81,11.81,0,0,1-2.88-4.82,12.62,12.62,0,0,1-1-6.75,11.85,11.85,0,0,1,1.92-4.8,12,12,0,0,1,3.84-3.84,11.07,11.07,0,0,1,5.74-1.52,13.06,13.06,0,0,1,3.84.56h0a12.84,12.84,0,0,1,7.69,7.69C688.24,469.25,690,474.49,687.07,479.24Z" transform="translate(-562 -410.74)"/></svg>