<svg xmlns="http://www.w3.org/2000/svg" viewBox="0 0 801.31 262.49"><defs><style>.cls-1{fill:#0b6cd3;stroke:#0b6cd3;}.cls-1,.cls-2,.cls-3{stroke-miterlimit:10;}.cls-2{fill:#07bdef;stroke:#07bdef;opacity:0.6;}.cls-3{fill:#009152;stroke:#009152;opacity:0.8;}</style></defs><title>Recurso 1</title><g id="Capa_2" data-name="Capa 2"><g id="Capa_1-2" data-name="Capa 1"><path class="cls-1" d="M.5,1.5v48a133.67,133.67,0,0,0,27,19,111.14,111.14,0,0,0,32,12c13.94,2.77,24.72,1.91,36,1,10.08-.81,17.89-1.44,28-5a85.85,85.85,0,0,0,24-13c3.24-2.54,7.87-7.39,17-17,9.35-9.84,9.27-10.16,15-16,9.19-9.36,13.93-14.13,21-19a91.61,91.61,0,0,1,19-10"/><path class="cls-2" d="M.5.5v260c4.66.33,11.19.74,19,1,16.3.55,32.12,1.08,50-1a218.14,218.14,0,0,0,44-10,217.61,217.61,0,0,0,57-29c12.22-8.78,20.34-16.63,29-25,9.06-8.76,20.77-20.08,33-37,8.64-12,8.77-14.58,18-26,7.69-9.51,10.28-11,19-22,8.36-10.53,7.76-11.39,16-22a273.67,273.67,0,0,1,23-26,270.14,270.14,0,0,1,25-22,258.39,258.39,0,0,1,28-19,230.77,230.77,0,0,1,52-22"/><path class="cls-2" d="M106.5.5c12.23,4.45,28,9.44,44.5,20,6.93,4.43,15.5,9.91,25,19,3.13,3,3.81,3.94,10,10,10.21,10,13.47,12.43,18,17,7.89,8,7.11,9.75,18,24,6.31,8.26,13.21,15.84,27,31,10,11,15,16.51,19,20,12.17,10.67,23.25,16.48,32,21a203.12,203.12,0,0,0,50,18c24.26,5.22,43.27,4.53,58,4,13.23-.48,27.59-1.08,46-6a178.25,178.25,0,0,0,32-12c6.29-3.07,24.41-12.37,46-32,5.86-5.33,8.92-8.64,34-38,31-36.25,36-42.6,48-54,20-19.09,31.64-25.9,40-30a131.24,131.24,0,0,1,33-11L107,.5"/><path class="cls-2" d="M801,1.5H296c10.31,3.57,23.3,8.46,38,15a406.9,406.9,0,0,1,38,19c18,10.31,23.14,15.56,53,37,24.22,17.39,36.33,26.09,45,31,33.71,19.1,61.83,25.47,69,27,12.35,2.63,23.57,3.42,46,5,27.47,1.93,49.31,3.47,78,1,17.27-1.49,37-3.3,62-11a242.8,242.8,0,0,0,59-27c7.2-4.61,13-8.87,17-12"/><path class="cls-3" d="M799.5,1V71c-2.7-1.39-6.85-3.51-12-6-10.17-4.92-13.32-6-18-9-1.65-1-3.64-2.49-13-11-7.58-6.9-10.43-9.75-15-14-12.39-11.5-18.59-17.26-27-22a82.71,82.71,0,0,0-20-8"/></g></g></svg>